<?xml version="1.0" encoding="UTF-8" ?>
<!DOCTYPE svg PUBLIC "-//W3C//DTD SVG 1.1//EN" "http://www.w3.org/Graphics/SVG/1.1/DTD/svg11.dtd">
<svg width="512pt" height="512pt" viewBox="0 0 512 512" version="1.1" xmlns="http://www.w3.org/2000/svg">
<g id="#000000ff">
<path fill="#000000" opacity="1.00" d=" M 205.01 28.15 C 220.62 26.30 236.37 26.92 252.06 26.80 C 267.06 26.90 282.08 26.48 297.07 27.31 C 335.90 29.60 374.05 42.08 406.73 63.18 C 449.96 90.87 483.42 133.49 499.81 182.16 C 507.20 203.55 510.93 226.06 512.00 248.64 L 512.00 262.46 C 510.71 299.44 500.87 336.19 482.56 368.41 C 463.86 401.65 436.73 430.12 404.36 450.31 C 372.75 470.17 336.18 482.09 298.92 484.55 C 287.96 485.42 276.96 485.15 265.99 485.20 C 252.99 485.17 239.99 485.26 226.99 485.15 C 198.95 484.81 170.94 479.45 144.85 469.12 C 116.63 458.01 90.73 441.12 69.04 419.94 C 43.14 394.70 23.31 363.24 11.87 328.92 C 4.32 306.61 0.52 283.11 0.00 259.59 L 0.00 252.39 C 0.64 213.88 11.02 175.55 30.25 142.15 C 55.03 98.69 94.45 63.80 140.64 44.58 C 144.02 43.32 147.27 41.39 150.93 41.15 C 154.10 41.11 156.46 43.53 157.93 46.08 C 159.05 50.37 156.58 54.89 152.29 56.07 C 112.18 71.42 76.96 99.20 52.69 134.64 C 28.98 168.92 15.72 210.29 15.06 251.98 C 14.32 290.27 23.96 328.74 43.03 361.97 C 66.41 403.18 103.88 436.22 147.77 454.10 C 195.00 473.66 249.32 475.37 297.70 458.89 C 333.94 446.71 366.74 424.56 391.64 395.55 C 415.96 367.38 432.72 332.74 439.55 296.14 C 445.63 263.83 444.30 230.10 435.47 198.41 C 421.23 146.53 386.43 100.67 340.32 72.96 C 295.50 45.34 240.17 35.65 188.56 45.76 C 185.87 46.19 182.87 46.99 180.37 45.47 C 178.44 44.49 177.43 42.48 176.49 40.65 C 176.16 36.90 178.00 32.65 181.98 31.80 C 189.53 29.88 197.30 29.14 205.01 28.15 M 318.73 44.94 C 332.37 50.79 345.50 57.85 357.76 66.24 C 358.95 67.29 360.57 67.14 362.05 67.16 C 369.37 67.11 376.68 67.15 383.99 67.12 C 363.64 56.27 341.54 48.52 318.73 44.94 M 378.51 82.13 C 387.50 89.97 395.93 98.44 403.73 107.47 C 414.85 107.45 425.97 107.48 437.10 107.46 C 429.11 99.23 420.52 91.59 411.38 84.67 C 409.74 83.54 408.21 81.76 406.02 82.12 C 396.85 82.14 387.68 82.13 378.51 82.13 M 415.48 122.47 C 421.26 130.56 426.54 139.00 431.27 147.73 C 443.42 147.73 455.57 147.74 467.71 147.73 C 462.50 138.92 456.67 130.49 450.32 122.47 C 438.71 122.46 427.09 122.46 415.48 122.47 M 438.65 162.74 C 442.27 171.00 445.45 179.46 448.16 188.06 C 460.79 188.07 473.42 188.07 486.05 188.06 C 483.15 179.42 479.69 170.97 475.77 162.74 C 463.40 162.73 451.03 162.73 438.65 162.74 M 452.24 203.06 C 454.15 211.40 455.64 219.84 456.70 228.33 C 469.55 228.33 482.39 228.34 495.23 228.33 C 494.15 219.84 492.47 211.44 490.50 203.12 C 477.75 203.00 464.99 203.10 452.24 203.06 M 458.01 243.33 C 458.41 251.77 458.41 260.23 458.01 268.67 C 470.88 268.66 483.76 268.67 496.63 268.67 C 497.09 260.23 497.09 251.77 496.63 243.33 C 483.76 243.32 470.88 243.34 458.01 243.33 M 452.23 308.94 C 464.97 308.92 477.72 308.95 490.46 308.92 C 492.49 300.59 494.13 292.17 495.23 283.67 C 482.39 283.66 469.54 283.67 456.70 283.67 C 455.64 292.16 454.15 300.59 452.23 308.94 M 448.15 323.94 C 445.45 332.55 442.28 341.00 438.64 349.26 C 451.01 349.27 463.38 349.27 475.75 349.26 C 479.69 341.04 483.14 332.58 486.04 323.94 C 473.41 323.93 460.78 323.93 448.15 323.94 M 431.28 364.27 C 426.54 373.00 421.25 381.43 415.50 389.53 C 427.11 389.53 438.72 389.55 450.33 389.52 C 456.66 381.49 462.50 373.08 467.71 364.28 C 455.57 364.25 443.42 364.27 431.28 364.27 M 378.51 429.87 C 388.32 429.87 398.13 429.86 407.95 429.87 C 418.37 422.28 428.13 413.79 437.11 404.54 C 425.98 404.52 414.85 404.55 403.73 404.53 C 395.93 413.55 387.50 422.02 378.51 429.87 M 350.57 450.43 C 340.51 456.83 329.83 462.17 318.97 467.04 C 341.69 463.41 363.70 455.67 384.00 444.87 C 375.72 444.96 367.42 444.67 359.15 445.00 C 356.12 446.52 353.46 448.66 350.57 450.43 Z" />
<path fill="#000000" opacity="1.00" d=" M 143.40 89.39 C 174.21 73.42 209.53 66.36 244.11 69.19 C 280.74 71.95 316.36 86.03 345.12 108.85 C 372.40 130.28 393.41 159.46 405.40 192.00 C 422.14 238.08 420.01 290.69 399.10 335.09 C 391.04 352.37 380.36 368.46 367.42 382.48 C 364.70 385.54 359.96 385.24 356.88 382.91 C 354.12 379.82 353.76 374.89 356.85 371.90 C 375.67 351.12 389.42 325.75 396.27 298.54 C 404.47 266.38 403.15 231.84 392.39 200.43 C 379.11 161.29 351.22 127.25 315.30 106.75 C 287.90 90.58 255.80 82.68 224.03 83.67 C 187.18 84.64 150.82 97.98 122.04 121.00 C 94.48 142.83 73.80 173.24 63.84 206.98 C 54.29 239.06 54.40 273.93 64.13 305.95 C 78.43 353.77 114.64 394.46 160.54 414.09 C 191.37 427.74 226.30 431.63 259.46 425.79 C 285.30 421.29 309.98 410.60 331.12 395.09 C 334.38 392.29 339.27 393.03 342.11 396.06 C 344.16 399.39 344.03 404.21 340.64 406.63 C 323.73 419.36 304.50 428.89 284.33 435.27 C 244.26 447.46 200.11 445.98 161.11 430.60 C 129.93 418.49 102.22 397.73 81.61 371.41 C 59.06 342.77 45.17 307.42 42.37 271.07 C 39.55 236.76 46.41 201.70 62.12 171.05 C 79.83 136.25 108.68 107.26 143.40 89.39 Z" />
<path fill="#000000" opacity="1.00" d=" M 203.17 128.32 C 207.60 117.48 219.31 110.18 231.01 111.14 C 242.14 111.71 252.40 119.61 255.88 130.19 C 258.10 136.28 257.19 142.86 257.48 149.20 C 274.88 154.17 289.97 166.49 298.53 182.41 C 302.03 188.58 304.51 195.68 303.45 202.87 C 302.18 214.66 292.69 224.96 281.02 227.11 C 268.58 229.85 254.90 222.90 249.81 211.22 C 248.05 206.78 243.92 203.17 239.03 202.94 C 232.70 202.78 226.36 202.85 220.03 202.91 C 215.40 202.93 211.01 205.88 209.12 210.08 C 205.18 217.70 211.45 227.83 220.02 227.70 C 231.04 228.02 242.24 226.87 253.07 229.44 C 270.93 233.38 286.94 244.84 296.53 260.41 C 309.38 280.68 310.31 307.81 298.84 328.89 C 296.89 332.50 291.93 333.59 288.45 331.58 C 286.98 330.29 285.50 328.80 285.13 326.81 C 284.36 323.99 285.97 321.37 287.04 318.90 C 293.82 304.45 293.35 286.96 286.22 272.74 C 279.26 258.62 265.85 247.84 250.49 244.26 C 239.40 241.57 227.90 243.41 216.65 242.47 C 207.47 241.30 199.16 235.07 195.40 226.62 C 191.76 218.75 192.22 209.16 196.57 201.67 C 201.25 193.38 210.48 187.87 220.03 187.88 C 226.34 187.86 232.66 187.81 238.97 187.90 C 247.90 188.17 256.55 193.15 261.22 200.78 C 263.36 204.49 264.94 209.01 269.08 211.02 C 275.33 214.69 284.17 211.93 287.25 205.38 C 289.58 201.00 288.73 195.74 286.40 191.57 C 279.38 177.11 265.64 166.09 249.89 162.72 C 246.58 162.21 243.15 160.14 242.62 156.57 C 241.94 150.03 242.94 143.42 242.12 136.89 C 241.16 130.75 235.26 125.92 229.05 126.10 C 222.92 126.02 217.17 130.82 216.21 136.89 C 215.40 143.48 216.43 150.17 215.68 156.77 C 215.08 160.06 211.99 162.08 208.89 162.63 C 191.95 166.19 177.25 178.52 170.66 194.51 C 164.67 208.60 165.16 225.26 171.97 238.97 C 178.73 252.93 191.81 263.62 206.84 267.46 C 215.37 269.80 224.31 269.20 233.06 269.26 C 238.29 269.14 243.72 269.21 248.59 271.40 C 258.36 275.42 265.25 285.47 265.38 296.05 C 265.79 307.19 258.62 318.04 248.27 322.11 C 242.20 324.77 235.45 324.05 229.00 324.13 C 223.82 324.04 218.54 324.57 213.46 323.28 C 206.20 321.38 199.69 316.44 196.26 309.72 C 194.48 306.03 192.78 301.85 188.86 299.94 C 182.17 295.91 172.53 299.51 170.07 306.91 C 167.84 312.38 170.56 318.07 173.19 322.84 C 180.51 336.32 193.89 346.32 208.93 349.42 C 212.02 349.93 215.06 351.96 215.67 355.21 C 216.44 361.80 215.40 368.48 216.20 375.07 C 217.20 381.53 223.63 386.49 230.13 385.86 C 235.96 385.54 241.23 380.85 242.12 375.06 C 242.93 368.55 241.95 361.95 242.62 355.44 C 243.14 351.84 246.60 349.78 249.93 349.25 C 255.30 348.17 260.24 345.79 265.14 343.44 C 268.37 341.81 272.17 343.39 274.29 346.05 C 276.32 349.35 275.67 354.14 272.34 356.34 C 267.74 359.29 262.56 361.15 257.41 362.88 C 257.37 366.89 257.54 370.90 257.29 374.91 C 256.69 383.56 251.76 391.75 244.45 396.41 C 237.63 400.87 228.83 402.12 221.05 399.72 C 212.32 397.16 205.11 390.09 202.33 381.44 C 200.29 375.47 201.08 369.09 200.92 362.91 C 184.13 358.01 169.39 346.51 160.74 331.29 C 157.63 325.64 154.58 319.62 154.27 313.05 C 153.75 304.43 157.48 295.66 164.07 290.07 C 170.77 284.23 180.34 281.88 188.97 284.03 C 197.64 286.03 205.15 292.38 208.50 300.64 C 210.23 305.42 214.82 309.12 220.01 309.10 C 226.35 309.13 232.70 309.24 239.05 309.03 C 245.51 308.68 250.84 302.49 250.35 296.05 C 250.15 289.98 244.90 284.57 238.81 284.33 C 228.19 283.94 217.42 285.08 206.93 282.90 C 189.53 279.52 173.71 269.02 163.68 254.43 C 155.11 242.14 150.74 226.98 151.56 212.01 C 152.27 195.55 159.25 179.49 170.67 167.63 C 178.90 158.94 189.49 152.62 200.92 149.15 C 201.04 142.18 200.19 134.85 203.17 128.32 Z" />
</g>
<g id="#f0f0f0">
<path fill="#f0f0f0" opacity="1.00" d=" M 157.93 46.08 C 164.02 43.98 170.25 42.26 176.49 40.65 C 177.43 42.48 178.44 44.49 180.37 45.47 C 182.87 46.99 185.87 46.19 188.56 45.76 C 240.17 35.65 295.50 45.34 340.32 72.96 C 341.76 74.75 343.16 76.58 344.77 78.22 C 374.88 107.60 396.10 145.88 405.38 186.89 C 405.69 188.58 405.45 190.30 405.40 192.00 C 393.41 159.46 372.40 130.28 345.12 108.85 C 316.36 86.03 280.74 71.95 244.11 69.19 C 209.53 66.36 174.21 73.42 143.40 89.39 C 108.68 107.26 79.83 136.25 62.12 171.05 C 46.41 201.70 39.55 236.76 42.37 271.07 C 45.17 307.42 59.06 342.77 81.61 371.41 C 102.22 397.73 129.93 418.49 161.11 430.60 C 200.11 445.98 244.26 447.46 284.33 435.27 C 282.77 436.41 281.25 437.65 279.49 438.49 C 251.11 451.11 220.04 457.73 188.97 457.58 C 175.14 457.82 161.43 455.94 147.77 454.10 C 103.88 436.22 66.41 403.18 43.03 361.97 C 23.96 328.74 14.32 290.27 15.06 251.98 C 15.72 210.29 28.98 168.92 52.69 134.64 C 76.96 99.20 112.18 71.42 152.29 56.07 C 156.58 54.89 159.05 50.37 157.93 46.08 Z" />
<path fill="#f0f0f0" opacity="1.00" d=" M 216.21 136.89 C 217.17 130.82 222.92 126.02 229.05 126.10 C 235.26 125.92 241.16 130.75 242.12 136.89 C 242.94 143.42 241.94 150.03 242.62 156.57 C 243.15 160.14 246.58 162.21 249.89 162.72 C 265.64 166.09 279.38 177.11 286.40 191.57 C 288.73 195.74 289.58 201.00 287.25 205.38 C 284.17 211.93 275.33 214.69 269.08 211.02 C 264.94 209.01 263.36 204.49 261.22 200.78 C 256.55 193.15 247.90 188.17 238.97 187.90 C 232.66 187.81 226.34 187.86 220.03 187.88 C 210.48 187.87 201.25 193.38 196.57 201.67 C 192.22 209.16 191.76 218.75 195.40 226.62 C 199.16 235.07 207.47 241.30 216.65 242.47 C 227.90 243.41 239.40 241.57 250.49 244.26 C 265.85 247.84 279.26 258.62 286.22 272.74 C 293.35 286.96 293.82 304.45 287.04 318.90 C 285.97 321.37 284.36 323.99 285.13 326.81 C 285.50 328.80 286.98 330.29 288.45 331.58 C 284.57 337.13 279.87 342.18 274.29 346.05 C 272.17 343.39 268.37 341.81 265.14 343.44 C 260.24 345.79 255.30 348.17 249.93 349.25 C 246.60 349.78 243.14 351.84 242.62 355.44 C 241.95 361.95 242.93 368.55 242.12 375.06 C 241.23 380.85 235.96 385.54 230.13 385.86 C 223.63 386.49 217.20 381.53 216.20 375.07 C 215.40 368.48 216.44 361.80 215.67 355.21 C 215.06 351.96 212.02 349.93 208.93 349.42 C 193.89 346.32 180.51 336.32 173.19 322.84 C 170.56 318.07 167.84 312.38 170.07 306.91 C 172.53 299.51 182.17 295.91 188.86 299.94 C 192.78 301.85 194.48 306.03 196.26 309.72 C 199.69 316.44 206.20 321.38 213.46 323.28 C 218.54 324.57 223.82 324.04 229.00 324.13 C 235.45 324.05 242.20 324.77 248.27 322.11 C 258.62 318.04 265.79 307.19 265.38 296.05 C 265.25 285.47 258.36 275.42 248.59 271.40 C 243.72 269.21 238.29 269.14 233.06 269.26 C 224.31 269.20 215.37 269.80 206.84 267.46 C 191.81 263.62 178.73 252.93 171.97 238.97 C 165.16 225.26 164.67 208.60 170.66 194.51 C 177.25 178.52 191.95 166.19 208.89 162.63 C 211.99 162.08 215.08 160.06 215.68 156.77 C 216.43 150.17 215.40 143.48 216.21 136.89 Z" />
</g>
<g id="#C0C0C0">
<path fill="#C0C0C0" opacity="1.00" d=" M 318.73 44.94 C 341.54 48.52 363.64 56.27 383.99 67.12 C 376.68 67.15 369.37 67.11 362.05 67.16 C 360.57 67.14 358.95 67.29 357.76 66.24 C 345.50 57.85 332.37 50.79 318.73 44.94 Z" />
<path fill="#C0C0C0" opacity="1.00" d=" M 378.51 82.13 C 387.68 82.13 396.85 82.14 406.02 82.12 C 408.21 81.76 409.74 83.54 411.38 84.67 C 420.52 91.59 429.11 99.23 437.10 107.46 C 425.97 107.48 414.85 107.45 403.73 107.47 C 395.93 98.44 387.50 89.97 378.51 82.13 Z" />
<path fill="#C0C0C0" opacity="1.00" d=" M 315.30 106.75 C 351.22 127.25 379.11 161.29 392.39 200.43 C 403.15 231.84 404.47 266.38 396.27 298.54 C 389.42 325.75 375.67 351.12 356.85 371.90 C 353.76 374.89 354.12 379.82 356.88 382.91 C 352.13 387.49 347.26 391.94 342.11 396.06 C 339.27 393.03 334.38 392.29 331.12 395.09 C 309.98 410.60 285.30 421.29 259.46 425.79 C 226.30 431.63 191.37 427.74 160.54 414.09 C 168.71 414.54 176.82 415.83 185.02 415.87 C 224.26 416.86 263.70 404.59 295.31 381.29 C 321.08 362.44 341.76 336.66 354.38 307.31 C 370.11 271.09 373.33 229.61 363.51 191.36 C 355.97 161.59 340.53 133.87 319.25 111.73 C 317.82 110.16 316.58 108.43 315.30 106.75 Z" />
<path fill="#C0C0C0" opacity="1.00" d=" M 415.48 122.47 C 427.09 122.46 438.71 122.46 450.32 122.47 C 456.67 130.49 462.50 138.92 467.71 147.73 C 455.57 147.74 443.42 147.73 431.27 147.73 C 426.54 139.00 421.26 130.56 415.48 122.47 Z" />
<path fill="#C0C0C0" opacity="1.00" d=" M 438.65 162.74 C 451.03 162.73 463.40 162.73 475.77 162.74 C 479.69 170.97 483.15 179.42 486.05 188.06 C 473.42 188.07 460.79 188.07 448.16 188.06 C 445.45 179.46 442.27 171.00 438.65 162.74 Z" />
<path fill="#C0C0C0" opacity="1.00" d=" M 452.24 203.06 C 464.99 203.10 477.75 203.00 490.50 203.12 C 492.47 211.44 494.15 219.84 495.23 228.33 C 482.39 228.34 469.55 228.33 456.70 228.33 C 455.64 219.84 454.15 211.40 452.24 203.06 Z" />
<path fill="#C0C0C0" opacity="1.00" d=" M 458.01 243.33 C 470.88 243.34 483.76 243.32 496.63 243.33 C 497.09 251.77 497.09 260.23 496.63 268.67 C 483.76 268.67 470.88 268.66 458.01 268.67 C 458.41 260.23 458.41 251.77 458.01 243.33 Z" />
<path fill="#C0C0C0" opacity="1.00" d=" M 452.23 308.94 C 454.15 300.59 455.64 292.16 456.70 283.67 C 469.54 283.67 482.39 283.66 495.23 283.67 C 494.13 292.17 492.49 300.59 490.46 308.92 C 477.72 308.95 464.97 308.92 452.23 308.94 Z" />
<path fill="#C0C0C0" opacity="1.00" d=" M 448.15 323.94 C 460.78 323.93 473.41 323.93 486.04 323.94 C 483.14 332.58 479.69 341.04 475.75 349.26 C 463.38 349.27 451.01 349.27 438.64 349.26 C 442.28 341.00 445.45 332.55 448.15 323.94 Z" />
<path fill="#C0C0C0" opacity="1.00" d=" M 431.28 364.27 C 443.42 364.27 455.57 364.25 467.71 364.28 C 462.50 373.08 456.66 381.49 450.33 389.52 C 438.72 389.55 427.11 389.53 415.50 389.53 C 421.25 381.43 426.54 373.00 431.28 364.27 Z" />
<path fill="#C0C0C0" opacity="1.00" d=" M 378.51 429.87 C 387.50 422.02 395.93 413.55 403.73 404.53 C 414.85 404.55 425.98 404.52 437.11 404.54 C 428.13 413.79 418.37 422.28 407.95 429.87 C 398.13 429.86 388.32 429.87 378.51 429.87 Z" />
<path fill="#C0C0C0" opacity="1.00" d=" M 350.57 450.43 C 353.46 448.66 356.12 446.52 359.15 445.00 C 367.42 444.67 375.72 444.96 384.00 444.87 C 363.70 455.67 341.69 463.41 318.97 467.04 C 329.83 462.17 340.51 456.83 350.57 450.43 Z" />
</g>
<g id="#f6e781ff">
<path fill="#bcbcbc" opacity="1.00" d=" M 340.32 72.96 C 386.43 100.67 421.23 146.53 435.47 198.41 C 444.30 230.10 445.63 263.83 439.55 296.14 C 432.72 332.74 415.96 367.38 391.64 395.55 C 366.74 424.56 333.94 446.71 297.70 458.89 C 249.32 475.37 195.00 473.66 147.77 454.10 C 161.43 455.94 175.14 457.82 188.97 457.58 C 220.04 457.73 251.11 451.11 279.49 438.49 C 281.25 437.65 282.77 436.41 284.33 435.27 C 304.50 428.89 323.73 419.36 340.64 406.63 C 344.03 404.21 344.16 399.39 342.11 396.06 C 347.26 391.94 352.13 387.49 356.88 382.91 C 359.96 385.24 364.70 385.54 367.42 382.48 C 380.36 368.46 391.04 352.37 399.10 335.09 C 420.01 290.69 422.14 238.08 405.40 192.00 C 405.45 190.30 405.69 188.58 405.38 186.89 C 396.10 145.88 374.88 107.60 344.77 78.22 C 343.16 76.58 341.76 74.75 340.32 72.96 Z" />
</g>
<g id="#f6e266ff">
<path fill="#a0a0a0" opacity="1.00" d=" M 122.04 121.00 C 150.82 97.98 187.18 84.64 224.03 83.67 C 255.80 82.68 287.90 90.58 315.30 106.75 C 316.58 108.43 317.82 110.16 319.25 111.73 C 340.53 133.87 355.97 161.59 363.51 191.36 C 373.33 229.61 370.11 271.09 354.38 307.31 C 341.76 336.66 321.08 362.44 295.31 381.29 C 263.70 404.59 224.26 416.86 185.02 415.87 C 176.82 415.83 168.71 414.54 160.54 414.09 C 114.64 394.46 78.43 353.77 64.13 305.95 C 54.40 273.93 54.29 239.06 63.84 206.98 C 73.80 173.24 94.48 142.83 122.04 121.00 M 203.17 128.32 C 200.19 134.85 201.04 142.18 200.92 149.15 C 189.49 152.62 178.90 158.94 170.67 167.63 C 159.25 179.49 152.27 195.55 151.56 212.01 C 150.74 226.98 155.11 242.14 163.68 254.43 C 173.71 269.02 189.53 279.52 206.93 282.90 C 217.42 285.08 228.19 283.94 238.81 284.33 C 244.90 284.57 250.15 289.98 250.35 296.05 C 250.84 302.49 245.51 308.68 239.05 309.03 C 232.70 309.24 226.35 309.13 220.01 309.10 C 214.82 309.12 210.23 305.42 208.50 300.64 C 205.15 292.38 197.64 286.03 188.97 284.03 C 180.34 281.88 170.77 284.23 164.07 290.07 C 157.48 295.66 153.75 304.43 154.27 313.05 C 154.58 319.62 157.63 325.64 160.74 331.29 C 169.39 346.51 184.13 358.01 200.92 362.91 C 201.08 369.09 200.29 375.47 202.33 381.44 C 205.11 390.09 212.32 397.16 221.05 399.72 C 228.83 402.12 237.63 400.87 244.45 396.41 C 251.76 391.75 256.69 383.56 257.29 374.91 C 257.54 370.90 257.37 366.89 257.41 362.88 C 262.56 361.15 267.74 359.29 272.34 356.34 C 275.67 354.14 276.32 349.35 274.29 346.05 C 279.87 342.18 284.57 337.13 288.45 331.58 C 291.93 333.59 296.89 332.50 298.84 328.89 C 310.31 307.81 309.38 280.68 296.53 260.41 C 286.94 244.84 270.93 233.38 253.07 229.44 C 242.24 226.87 231.04 228.02 220.02 227.70 C 211.45 227.83 205.18 217.70 209.12 210.08 C 211.01 205.88 215.40 202.93 220.03 202.91 C 226.36 202.85 232.70 202.78 239.03 202.94 C 243.92 203.17 248.05 206.78 249.81 211.22 C 254.90 222.90 268.58 229.85 281.02 227.11 C 292.69 224.96 302.18 214.66 303.45 202.87 C 304.51 195.68 302.03 188.58 298.53 182.41 C 289.97 166.49 274.88 154.17 257.48 149.20 C 257.19 142.86 258.10 136.28 255.88 130.19 C 252.40 119.61 242.14 111.71 231.01 111.14 C 219.31 110.18 207.60 117.48 203.17 128.32 Z" />
</g>
</svg>
