<?xml version="1.0" encoding="UTF-8" ?>
<!DOCTYPE svg PUBLIC "-//W3C//DTD SVG 1.1//EN" "http://www.w3.org/Graphics/SVG/1.1/DTD/svg11.dtd">
<svg width="512pt" height="512pt" viewBox="0 0 512 512" version="1.1" xmlns="http://www.w3.org/2000/svg">
<g id="#302e36ff">
<path fill="#302e36" opacity="1.00" d=" M 254.23 0.00 L 257.76 0.00 C 261.24 0.64 264.51 2.70 265.91 6.06 C 304.81 87.51 343.70 168.97 382.58 250.43 C 384.75 254.33 383.96 259.02 381.81 262.75 C 343.06 343.70 304.44 424.73 265.69 505.69 C 264.24 509.03 261.03 511.12 257.59 512.00 L 254.44 512.00 C 250.39 511.13 247.09 508.24 245.63 504.38 C 206.95 423.37 168.20 342.39 129.47 261.41 C 127.64 257.99 127.47 253.80 129.36 250.37 C 168.25 168.92 207.17 87.49 246.09 6.06 C 247.47 2.69 250.75 0.64 254.23 0.00 M 255.23 63.86 C 242.13 124.35 229.02 184.84 215.80 245.31 C 242.53 245.51 269.26 245.22 295.98 245.39 C 283.04 184.17 269.47 123.08 256.33 61.90 C 255.65 62.36 255.29 63.02 255.23 63.86 M 215.70 119.62 C 196.82 159.10 177.95 198.57 159.07 238.05 C 157.94 240.46 156.51 242.77 156.03 245.43 C 168.73 245.27 181.43 245.44 194.13 245.31 C 204.50 196.47 215.53 147.77 225.77 98.91 C 222.13 105.66 219.12 112.75 215.70 119.62 M 286.22 98.88 C 296.59 147.70 307.49 196.42 317.96 245.22 C 330.68 245.26 343.41 245.30 356.13 245.17 C 332.89 196.38 309.68 147.56 286.22 98.88 M 156.01 266.59 C 156.30 267.74 156.62 268.91 157.16 270.00 C 180.13 317.66 202.77 365.48 225.82 413.10 C 215.31 364.31 204.52 315.57 194.17 266.75 C 181.45 266.50 168.73 266.76 156.01 266.59 M 215.83 266.77 C 229.36 328.04 242.40 389.42 256.03 450.67 C 269.40 389.33 282.92 328.01 295.97 266.61 C 269.25 266.85 242.53 266.39 215.83 266.77 M 316.38 274.26 C 306.27 320.53 296.36 366.85 286.14 413.09 C 309.62 364.41 332.87 315.60 356.14 266.81 C 343.57 266.62 330.99 266.98 318.44 266.59 C 317.14 268.94 317.03 271.70 316.38 274.26 Z" />
</g>
<g id="#e8e8e8ff">
</g>
</svg>
