<?xml version="1.0" encoding="UTF-8" ?>
<!DOCTYPE svg PUBLIC "-//W3C//DTD SVG 1.1//EN" "http://www.w3.org/Graphics/SVG/1.1/DTD/svg11.dtd">
<svg width="512pt" height="512pt" viewBox="0 0 512 512" version="1.1" xmlns="http://www.w3.org/2000/svg">
<g id="#3ac279ff">
<path fill="#3ac279" opacity="1.00" d=" M 52.97 59.95 C 76.29 43.63 104.84 36.15 133.04 35.01 C 151.66 34.10 170.52 36.49 188.14 42.72 C 215.22 52.12 239.09 70.13 255.99 93.25 C 271.86 71.59 293.81 54.38 318.84 44.59 C 346.05 33.82 376.64 31.95 405.01 39.09 C 436.42 46.87 464.81 65.97 484.05 91.96 C 501.76 115.59 511.59 144.90 512.00 174.42 L 512.00 177.63 C 511.58 198.39 505.10 218.53 496.19 237.12 C 482.57 265.36 463.66 290.66 443.35 314.40 C 416.79 345.09 387.33 373.15 356.58 399.60 C 324.42 427.15 290.90 453.14 256.02 477.18 C 219.31 452.73 184.14 425.98 150.54 397.41 C 111.55 363.86 74.35 327.68 43.94 286.03 C 25.79 260.69 9.81 232.94 2.94 202.26 C 1.15 194.17 0.17 185.92 0.00 177.64 L 0.00 173.46 C 0.40 149.49 4.65 125.18 15.46 103.61 C 24.07 86.23 37.04 71.03 52.97 59.95 Z" />
</g>
</svg>
