<?xml version="1.0" encoding="UTF-8" ?>
<!DOCTYPE svg PUBLIC "-//W3C//DTD SVG 1.1//EN" "http://www.w3.org/Graphics/SVG/1.1/DTD/svg11.dtd">
<svg width="1038pt" height="1049pt" viewBox="0 0 1038 1049" version="1.1" xmlns="http://www.w3.org/2000/svg">
<g id="#5b7687ff">
<path fill="#5b7687" opacity="1.00" d=" M 149.91 28.87 C 173.22 19.76 198.08 14.63 223.09 13.69 C 230.40 13.42 237.71 13.52 245.02 13.50 C 421.69 13.50 598.36 13.50 775.03 13.50 C 795.18 13.74 815.43 12.63 835.48 15.24 C 875.13 20.10 913.32 35.92 944.97 60.28 C 989.54 94.27 1021.01 145.14 1030.73 200.42 C 1033.60 216.10 1034.50 232.08 1034.25 248.00 C 1034.25 430.34 1034.25 612.67 1034.25 795.00 C 1034.36 815.04 1034.61 835.22 1030.87 855.00 C 1020.32 917.03 982.34 973.57 929.31 1007.30 C 927.71 1008.25 925.74 1007.81 923.99 1007.88 C 879.80 1007.15 835.71 1001.35 792.69 991.26 C 781.61 988.49 770.46 985.68 759.97 981.11 C 756.94 979.62 753.37 978.24 751.92 974.94 C 757.00 971.68 763.21 971.47 769.04 970.98 C 794.01 969.71 818.99 967.06 843.42 961.62 C 851.32 959.63 859.57 957.95 866.59 953.63 C 868.63 952.66 869.35 949.94 868.09 948.10 C 865.12 945.90 861.39 945.18 857.86 944.45 C 847.03 942.40 835.98 942.17 825.04 941.11 C 801.90 938.94 778.88 935.58 756.06 931.19 C 744.01 928.80 731.98 926.22 720.20 922.72 C 715.72 921.23 710.96 920.03 707.23 916.98 C 710.21 915.79 713.42 915.47 716.60 915.40 C 741.23 915.27 765.73 912.34 790.11 909.12 C 805.46 906.96 820.80 904.60 835.92 901.11 C 840.41 900.33 844.88 898.96 848.85 896.67 C 850.75 895.51 849.08 893.10 847.43 892.72 C 899.18 832.53 934.32 758.20 947.93 679.99 C 957.31 626.14 956.94 570.58 946.77 516.86 C 934.88 454.09 909.16 394.02 872.09 342.00 C 820.13 268.67 745.60 211.59 661.15 180.78 C 656.71 179.25 652.37 177.34 647.73 176.51 C 651.97 186.79 656.92 196.80 660.74 207.27 C 693.09 290.71 696.26 385.02 669.60 470.44 C 648.74 538.26 609.36 600.21 557.04 648.11 C 498.34 702.34 423.11 738.39 344.02 749.97 C 250.62 764.16 152.44 743.86 72.45 693.57 C 70.92 692.56 69.28 691.74 67.59 691.07 C 74.43 727.46 86.73 762.76 102.67 796.15 C 119.37 830.83 140.63 863.28 165.56 892.60 C 157.85 893.44 150.15 894.55 142.60 896.34 C 139.26 897.27 135.46 897.94 133.29 900.94 C 135.28 904.51 139.85 904.54 143.37 905.45 C 164.09 908.77 185.12 909.08 206.03 910.21 C 236.72 911.73 267.40 913.45 298.01 916.16 C 315.39 917.80 332.83 919.42 349.93 923.03 C 355.07 924.31 360.65 925.34 364.64 929.12 C 362.02 933.18 357.00 934.32 352.70 935.73 C 337.74 939.66 322.31 941.36 306.98 943.18 C 283.33 945.85 259.58 947.60 235.91 950.08 C 229.58 950.83 223.16 951.32 217.05 953.25 C 216.70 956.11 220.18 955.86 222.05 956.44 C 259.05 962.44 296.35 966.68 333.09 974.25 C 341.76 976.15 350.50 978.02 358.80 981.26 C 361.51 982.51 365.03 983.63 365.81 986.92 C 366.70 989.93 370.41 990.21 372.93 991.14 C 385.69 994.21 398.83 995.15 411.86 996.42 C 434.23 998.43 456.67 999.63 479.00 1002.05 C 485.58 1002.92 492.33 1003.38 498.62 1005.63 C 499.23 1006.08 500.83 1006.19 500.54 1007.28 C 495.61 1010.18 489.85 1011.13 484.38 1012.57 C 460.54 1017.99 436.42 1022.02 412.41 1026.65 C 388.50 1031.28 364.46 1035.69 341.18 1042.91 C 305.79 1043.31 270.37 1042.96 234.98 1043.08 C 217.35 1043.31 199.69 1041.54 182.48 1037.68 C 126.94 1025.46 76.84 991.14 44.86 944.17 C 22.35 911.41 8.68 872.64 5.81 832.99 C 5.11 825.01 5.38 816.99 5.33 808.99 C 5.33 620.32 5.33 431.66 5.33 242.99 C 4.37 199.00 17.27 154.96 41.08 118.03 C 66.83 77.89 105.43 46.13 149.91 28.87 Z" />
</g>
</svg>
