<?xml version="1.0" encoding="UTF-8" ?>
<!DOCTYPE svg PUBLIC "-//W3C//DTD SVG 1.1//EN" "http://www.w3.org/Graphics/SVG/1.1/DTD/svg11.dtd">
<svg width="1947pt" height="478pt" viewBox="0 0 1947 478" version="1.1" xmlns="http://www.w3.org/2000/svg">
<g id="#ffffffff">
<path fill="#ffffff" opacity="1.00" d=" M 82.78 61.80 C 99.34 43.72 123.46 32.73 148.02 32.56 C 225.34 32.54 302.66 32.56 379.98 32.55 C 400.40 32.39 420.71 39.63 436.60 52.42 C 454.07 66.31 466.22 86.79 469.72 108.86 C 470.74 114.85 470.95 120.94 470.88 127.01 C 470.87 198.66 470.88 270.31 470.87 341.95 C 470.79 349.95 471.23 357.99 470.09 365.94 C 466.67 392.29 451.01 417.03 428.24 430.80 C 410.15 430.78 392.10 428.33 374.48 424.28 C 368.66 422.71 362.46 421.59 357.49 417.98 C 359.62 416.24 362.46 416.26 365.07 416.04 C 375.49 415.49 385.93 414.36 396.10 411.92 C 399.27 411.15 402.51 410.19 405.07 408.06 C 404.22 406.82 403.01 405.96 401.53 405.72 C 396.44 404.55 391.18 404.55 386.00 404.00 C 374.27 402.82 362.59 401.01 351.11 398.33 C 347.20 397.30 343.08 396.58 339.65 394.31 C 343.74 393.52 347.92 393.85 352.05 393.52 C 362.70 392.75 373.32 391.42 383.85 389.61 C 388.36 388.70 393.05 388.17 397.22 386.08 C 396.96 385.68 396.44 384.88 396.18 384.48 C 423.60 352.76 439.04 310.97 438.96 269.04 C 439.30 238.46 431.49 207.84 416.64 181.11 C 395.08 142.03 358.45 111.38 315.91 97.70 C 329.40 125.59 334.66 157.37 330.74 188.11 C 326.77 220.25 312.73 251.02 291.14 275.14 C 267.90 301.36 235.93 319.71 201.51 326.32 C 161.22 334.37 118.12 325.96 83.59 303.78 C 89.42 333.53 103.22 361.64 122.93 384.65 C 118.71 385.26 114.30 385.52 110.39 387.37 C 109.57 389.82 113.48 389.41 115.04 390.00 C 137.00 392.33 159.16 392.12 181.11 394.60 C 188.43 395.61 196.18 395.71 202.90 399.11 C 200.42 401.94 196.43 402.25 192.99 403.04 C 178.42 405.58 163.62 406.27 148.95 407.92 C 146.92 408.17 144.79 408.34 143.06 409.54 C 161.69 413.52 181.00 414.30 199.32 419.79 C 202.47 420.20 203.26 424.12 206.49 424.28 C 219.88 426.82 233.58 426.87 247.10 428.36 C 250.60 428.82 254.31 428.88 257.49 430.61 C 253.48 432.23 249.23 433.07 245.01 433.95 C 230.28 436.95 215.41 439.24 200.79 442.76 C 197.51 443.43 194.41 445.06 191.00 444.94 C 176.67 444.91 162.34 444.95 148.01 444.92 C 125.00 444.74 102.34 435.11 85.99 418.97 C 68.91 402.33 58.76 378.79 58.67 354.92 C 58.64 277.60 58.66 200.28 58.66 122.96 C 58.63 100.49 67.49 78.24 82.78 61.80 Z" />
<path fill="#ffffff" opacity="1.00" d=" M 524.47 137.74 C 541.69 137.76 558.91 137.75 576.14 137.74 C 570.28 144.68 565.62 153.63 567.07 162.98 C 576.49 225.85 585.85 288.74 595.27 351.62 C 604.72 288.80 614.15 225.99 623.60 163.18 C 625.15 153.77 620.47 144.73 614.57 137.74 C 686.75 137.76 758.94 137.75 831.12 137.75 C 824.48 144.57 818.43 153.08 818.25 162.96 C 818.25 231.72 818.25 300.49 818.25 369.25 C 835.37 369.26 852.49 369.25 869.62 369.25 C 869.58 360.36 869.72 351.46 869.56 342.56 C 869.14 332.81 863.17 324.42 856.50 317.75 C 869.46 317.75 882.42 317.75 895.38 317.75 C 895.38 335.18 895.36 352.60 895.39 370.03 C 895.52 377.93 899.67 385.08 904.59 391.01 C 908.59 386.62 912.29 381.80 914.33 376.16 C 915.87 372.32 916.05 368.15 916.47 364.08 C 918.62 342.50 920.79 320.93 922.91 299.35 C 916.85 294.56 913.32 287.11 913.32 279.40 C 920.24 284.25 929.16 282.33 936.85 280.80 C 954.80 276.23 972.49 270.51 990.74 267.18 C 987.26 232.62 983.82 198.06 980.35 163.50 C 974.35 163.50 968.35 163.50 962.35 163.51 C 958.83 199.14 955.30 234.76 951.78 270.39 C 943.09 272.93 934.36 275.66 925.29 276.37 C 928.96 238.89 932.82 201.43 936.50 163.95 C 936.97 154.25 932.67 144.91 926.36 137.74 C 956.42 137.76 986.48 137.75 1016.55 137.75 C 1010.38 144.65 1005.07 153.47 1006.09 163.08 C 1013.00 231.88 1019.87 300.68 1026.78 369.47 C 1027.67 377.96 1032.72 385.26 1038.42 391.33 C 1043.98 384.88 1048.31 376.81 1048.00 368.07 C 1047.99 300.04 1048.03 232.02 1047.98 163.99 C 1048.06 153.73 1041.95 144.75 1034.99 137.73 C 1052.20 137.76 1069.42 137.75 1086.63 137.74 C 1080.18 144.37 1074.30 152.54 1073.78 162.09 C 1073.67 169.07 1073.80 176.04 1073.73 183.02 C 1073.79 184.82 1073.43 186.80 1074.47 188.42 C 1091.36 219.31 1108.15 250.25 1125.09 281.11 C 1125.16 242.10 1125.11 203.09 1125.11 164.08 C 1125.22 153.78 1119.10 144.76 1112.11 137.73 C 1129.33 137.77 1146.55 137.75 1163.76 137.74 C 1157.12 144.58 1151.04 153.09 1150.88 163.00 C 1150.86 231.67 1150.89 300.34 1150.87 369.01 C 1150.70 377.28 1154.93 384.84 1160.09 391.01 C 1165.71 384.95 1170.67 377.63 1171.46 369.19 C 1173.76 345.88 1176.16 322.59 1178.39 299.27 C 1172.29 294.56 1168.78 287.03 1168.88 279.35 C 1175.62 284.28 1184.52 282.32 1192.09 280.85 C 1210.14 276.30 1227.90 270.51 1246.24 267.18 C 1242.77 232.62 1239.32 198.06 1235.85 163.50 C 1229.85 163.50 1223.85 163.50 1217.85 163.50 C 1214.34 199.13 1210.79 234.75 1207.29 270.38 C 1198.60 272.94 1189.85 275.67 1180.78 276.36 C 1184.47 238.93 1188.30 201.50 1191.99 164.07 C 1192.51 154.33 1188.19 144.95 1181.86 137.74 C 1211.92 137.75 1241.98 137.75 1272.05 137.75 C 1265.93 144.60 1260.65 153.33 1261.58 162.87 C 1268.13 228.28 1274.68 293.69 1281.24 359.10 C 1282.04 365.31 1281.81 371.82 1284.46 377.64 C 1287.35 384.42 1292.39 389.98 1297.69 395.00 C 1280.47 395.01 1263.25 394.99 1246.04 395.01 C 1250.65 389.84 1254.70 383.86 1256.12 376.98 C 1257.20 372.48 1256.26 367.88 1255.87 363.36 C 1253.50 339.84 1251.13 316.33 1248.77 292.80 C 1233.47 295.46 1219.18 302.09 1203.91 304.72 C 1201.59 326.50 1199.55 348.31 1197.34 370.10 C 1196.39 379.60 1201.63 388.30 1207.73 395.12 C 1175.81 395.13 1143.90 395.13 1111.99 395.12 C 1118.98 388.19 1125.13 379.27 1125.10 369.05 C 1125.05 357.05 1125.30 345.04 1124.98 333.06 C 1108.09 301.59 1090.81 270.32 1073.75 238.94 C 1073.75 280.61 1073.75 322.29 1073.75 363.96 C 1073.76 367.93 1073.48 371.98 1074.56 375.86 C 1076.52 383.31 1081.36 389.57 1086.64 395.01 C 1054.61 395.00 1022.57 394.99 990.54 395.01 C 996.68 388.21 1001.91 379.47 1001.03 369.97 C 998.45 344.25 995.85 318.52 993.27 292.80 C 977.94 295.34 963.76 302.35 948.36 304.53 C 946.18 326.68 943.91 348.84 941.78 371.00 C 941.22 380.20 946.34 388.51 952.23 395.13 C 854.28 395.13 756.33 395.13 658.38 395.13 C 665.33 388.15 671.53 379.27 671.48 369.02 C 671.51 300.68 671.51 232.34 671.48 164.00 C 671.56 155.58 667.36 147.85 662.05 141.58 C 656.04 147.72 650.67 155.10 649.29 163.78 C 639.02 232.20 628.77 300.62 618.54 369.04 C 617.06 378.58 621.52 387.81 627.43 395.01 C 605.98 394.96 584.53 395.06 563.08 394.96 C 569.22 387.90 573.48 378.52 571.99 369.00 C 561.77 300.70 551.51 232.40 541.27 164.10 C 539.74 153.36 532.28 144.72 524.47 137.74 M 783.39 142.00 C 777.50 148.89 773.50 157.75 774.37 166.98 C 774.39 234.66 774.36 302.34 774.39 370.01 C 774.51 377.82 778.57 384.89 783.38 390.79 C 788.48 384.66 792.56 377.17 792.48 368.99 C 792.53 302.34 792.48 235.69 792.50 169.04 C 792.50 165.03 792.62 160.96 791.60 157.05 C 790.16 151.44 787.04 146.43 783.39 142.00 M 697.25 163.63 C 697.21 232.15 697.33 300.68 697.19 369.21 C 714.33 369.30 731.47 369.22 748.62 369.25 C 748.63 300.71 748.62 232.16 748.62 163.62 C 731.49 163.63 714.37 163.62 697.25 163.63 Z" />
<path fill="#ffffff" opacity="1.00" d=" M 1347.49 139.74 C 1405.20 139.76 1462.92 139.76 1520.63 139.74 C 1513.98 146.58 1507.90 155.12 1507.75 165.02 C 1507.75 233.77 1507.75 302.51 1507.75 371.25 C 1524.87 371.25 1542.00 371.25 1559.12 371.25 C 1559.11 302.82 1559.14 234.40 1559.11 165.97 C 1559.18 155.71 1553.08 146.74 1546.11 139.73 C 1592.45 139.77 1638.79 139.74 1685.12 139.75 C 1678.49 146.56 1672.43 155.07 1672.26 164.95 C 1672.24 233.71 1672.26 302.48 1672.25 371.25 C 1689.37 371.26 1706.49 371.25 1723.62 371.25 C 1723.58 362.38 1723.71 353.50 1723.56 344.63 C 1723.17 334.85 1717.18 326.44 1710.50 319.75 C 1723.46 319.75 1736.41 319.75 1749.38 319.75 C 1749.39 337.19 1749.36 354.63 1749.39 372.08 C 1749.54 379.99 1753.70 387.16 1758.66 393.09 C 1764.06 386.65 1768.32 378.69 1768.00 370.06 C 1767.99 302.01 1768.02 233.95 1767.98 165.90 C 1768.08 155.64 1761.91 146.74 1754.99 139.73 C 1785.31 139.77 1815.63 139.74 1845.95 139.75 C 1857.55 139.68 1868.20 148.91 1870.38 160.19 C 1870.97 163.41 1870.87 166.70 1870.88 169.96 C 1870.85 237.31 1870.91 304.67 1870.85 372.03 C 1870.87 382.45 1863.56 392.11 1853.88 395.62 C 1848.49 397.59 1842.65 397.03 1837.03 397.13 C 1673.81 397.12 1510.60 397.13 1347.38 397.13 C 1354.37 390.15 1360.29 381.15 1360.47 370.96 C 1360.54 344.24 1360.48 317.51 1360.49 290.79 C 1352.31 286.47 1347.30 277.63 1347.34 268.43 C 1351.53 271.42 1356.89 271.69 1361.85 271.20 C 1374.46 270.03 1386.33 265.31 1398.53 262.24 C 1411.48 258.91 1424.63 255.60 1438.07 255.39 C 1451.26 255.20 1463.18 266.88 1463.33 280.05 C 1463.44 310.36 1463.35 340.67 1463.38 370.99 C 1463.43 379.22 1467.48 386.86 1472.65 393.05 C 1478.03 386.60 1482.04 378.61 1481.99 370.05 C 1482.00 302.04 1482.03 234.02 1481.98 166.01 C 1482.10 157.63 1477.85 150.03 1472.74 143.69 C 1467.59 149.62 1463.50 156.99 1463.38 165.01 C 1463.36 182.34 1463.38 199.67 1463.38 217.00 C 1450.41 217.00 1437.45 216.99 1424.49 217.01 C 1431.36 210.29 1437.38 201.64 1437.59 191.69 C 1437.67 183.00 1437.60 174.31 1437.62 165.62 C 1420.49 165.63 1403.37 165.62 1386.25 165.63 C 1386.26 196.90 1386.24 228.18 1386.26 259.46 C 1377.80 261.98 1369.29 264.54 1360.52 265.66 C 1360.47 235.11 1360.51 204.55 1360.50 174.00 C 1360.45 168.81 1360.84 163.51 1359.35 158.47 C 1357.28 151.24 1352.64 145.09 1347.49 139.74 M 1584.88 165.01 C 1584.87 233.99 1584.87 302.98 1584.88 371.96 C 1585.00 379.79 1589.04 386.90 1593.91 392.78 C 1598.96 386.65 1603.05 379.20 1602.97 371.05 C 1603.04 303.70 1602.97 236.35 1603.01 168.99 C 1603.72 159.76 1599.81 150.89 1593.90 143.99 C 1589.00 149.93 1584.97 157.12 1584.88 165.01 M 1628.75 164.99 C 1628.75 233.98 1628.74 302.96 1628.75 371.95 C 1628.83 379.69 1632.83 386.69 1637.55 392.57 C 1642.58 386.50 1646.54 379.08 1646.48 371.01 C 1646.51 302.68 1646.51 234.36 1646.48 166.04 C 1646.57 157.89 1642.63 150.36 1637.59 144.20 C 1632.78 150.09 1628.85 157.20 1628.75 164.99 M 1793.75 165.50 C 1793.75 234.09 1793.75 302.67 1793.75 371.25 C 1810.87 371.25 1827.99 371.25 1845.12 371.25 C 1845.12 302.67 1845.12 234.09 1845.12 165.50 C 1828.00 165.50 1810.87 165.50 1793.75 165.50 M 1386.24 293.08 C 1386.26 319.14 1386.25 345.19 1386.25 371.24 C 1403.37 371.26 1420.49 371.25 1437.62 371.25 C 1437.62 341.27 1437.64 311.29 1437.61 281.31 C 1419.72 281.23 1403.42 289.37 1386.24 293.08 Z" />
</g>
</svg>
