<?xml version="1.0" encoding="UTF-8" ?>
<!DOCTYPE svg PUBLIC "-//W3C//DTD SVG 1.1//EN" "http://www.w3.org/Graphics/SVG/1.1/DTD/svg11.dtd">
<svg width="1244pt" height="1186pt" viewBox="0 0 1244 1186" version="1.1" xmlns="http://www.w3.org/2000/svg">
<g id="#ffffffff">
<path fill="#ffffff" opacity="1.00" d=" M 740.16 0.00 L 741.17 0.00 C 749.86 3.79 759.04 6.37 767.80 10.04 C 856.01 44.44 935.24 101.38 996.24 173.77 C 1055.95 244.38 1098.19 329.70 1117.66 420.13 C 1138.11 514.46 1134.38 613.99 1106.52 706.43 C 1083.77 782.25 1044.81 853.06 993.30 913.13 C 994.66 913.82 998.19 915.25 996.04 917.07 C 990.72 920.44 984.41 921.99 978.29 923.22 C 956.38 928.18 934.13 931.46 911.87 934.41 C 886.01 937.69 860.05 940.55 833.98 941.21 C 828.70 941.31 823.34 940.99 818.17 942.21 C 816.92 942.46 814.62 943.09 815.85 944.83 C 819.09 947.47 823.19 948.70 827.07 950.09 C 843.38 955.43 860.23 958.91 877.04 962.29 C 906.17 967.92 935.56 972.22 965.10 974.98 C 979.37 976.37 993.78 976.68 1007.90 979.41 C 1011.88 980.31 1016.10 981.11 1019.52 983.50 C 1021.10 984.40 1021.60 986.84 1020.21 988.17 C 1017.17 991.54 1012.65 992.96 1008.55 994.58 C 998.17 998.23 987.39 1000.57 976.62 1002.70 C 949.34 1007.84 921.67 1010.75 893.96 1012.08 C 887.70 1012.64 881.22 1012.88 875.33 1015.31 C 873.56 1015.90 871.39 1017.82 872.88 1019.79 C 876.72 1024.16 882.52 1026.02 887.73 1028.25 C 907.54 1035.58 928.23 1040.14 948.87 1044.44 C 994.37 1053.38 1040.59 1059.21 1086.99 1059.98 C 1116.86 1060.89 1146.67 1064.27 1175.97 1070.16 C 1193.88 1073.86 1211.79 1078.22 1228.69 1085.31 C 1233.73 1087.72 1239.28 1089.92 1242.86 1094.42 C 1244.30 1096.06 1243.99 1098.89 1242.03 1099.99 C 1237.45 1103.00 1231.78 1103.48 1226.49 1104.21 C 1213.02 1105.51 1199.45 1105.19 1185.94 1105.70 C 1119.96 1106.74 1053.95 1107.45 987.98 1105.47 C 952.38 1103.55 916.51 1105.45 881.40 1111.75 C 871.45 1113.57 861.53 1115.99 852.46 1120.58 C 842.84 1122.97 832.82 1123.03 822.99 1123.90 C 783.18 1126.21 743.31 1127.00 703.46 1127.61 C 647.65 1128.45 591.82 1128.44 536.01 1127.76 C 484.16 1126.84 432.25 1126.03 380.54 1121.82 C 368.79 1120.57 356.84 1119.79 345.47 1116.37 C 343.25 1115.48 339.47 1114.37 340.12 1111.28 C 341.98 1108.33 345.40 1106.97 348.47 1105.65 C 357.73 1102.01 367.40 1099.57 377.04 1097.19 C 414.13 1088.46 451.72 1082.10 489.13 1074.91 C 506.70 1071.52 524.33 1068.32 541.64 1063.71 C 545.77 1062.36 550.55 1061.62 553.54 1058.15 C 545.74 1053.31 536.14 1053.36 527.33 1051.92 C 509.12 1049.84 490.82 1048.60 472.54 1047.16 C 447.74 1045.14 422.83 1043.72 398.27 1039.57 C 392.67 1038.32 386.49 1037.74 381.78 1034.22 C 380.59 1031.85 379.94 1028.92 377.26 1027.76 C 367.84 1022.62 357.16 1020.47 346.84 1017.90 C 298.07 1007.26 248.40 1001.69 199.16 993.83 C 196.26 993.35 193.24 992.89 190.86 991.04 C 196.56 988.23 203.04 988.11 209.20 987.16 C 251.63 982.41 294.33 979.99 336.59 973.70 C 347.39 971.95 358.28 970.26 368.67 966.74 C 372.33 965.33 376.43 963.98 378.84 960.68 C 379.76 958.21 377.07 956.64 375.31 955.63 C 369.23 952.61 362.48 951.34 355.89 949.95 C 336.43 946.25 316.69 944.31 296.99 942.41 C 258.01 938.94 218.93 936.70 179.85 934.76 C 154.53 933.42 129.13 932.83 103.97 929.58 C 98.34 928.67 92.52 928.08 87.27 925.72 C 86.20 925.12 84.39 923.88 85.57 922.55 C 87.25 920.59 89.91 919.95 92.24 919.11 C 103.33 915.86 114.85 914.50 126.28 913.00 C 117.33 902.14 108.40 891.26 100.11 879.88 C 51.45 813.79 16.94 737.11 0.87 656.58 C 14.84 664.92 28.75 673.41 43.33 680.68 C 127.39 723.99 223.66 742.91 317.87 735.33 C 400.32 729.01 481.08 702.18 550.95 657.97 C 616.73 616.55 672.91 559.99 713.91 493.94 C 759.34 421.15 785.88 336.74 790.33 251.05 C 795.03 164.95 778.04 77.54 740.16 0.00 Z" />
</g>
</svg>
