<?xml version="1.0" encoding="UTF-8" ?>
<!DOCTYPE svg PUBLIC "-//W3C//DTD SVG 1.1//EN" "http://www.w3.org/Graphics/SVG/1.1/DTD/svg11.dtd">
<svg width="1071pt" height="1112pt" viewBox="0 0 1071 1112" version="1.1" xmlns="http://www.w3.org/2000/svg">
<g id="#ffffffff">
<path fill="#ffffff" opacity="1.00" d=" M 637.57 0.00 L 639.04 0.00 C 649.96 4.56 661.30 8.10 672.14 12.90 C 740.80 41.65 802.65 86.36 851.70 142.32 C 897.68 194.64 932.40 256.83 952.59 323.51 C 985.44 431.32 979.88 550.44 936.53 654.53 C 916.62 702.49 889.20 747.42 855.18 786.67 C 856.33 787.51 858.67 787.91 858.10 789.87 C 851.19 794.24 842.88 795.11 835.10 796.97 C 808.64 802.26 781.86 805.75 755.03 808.46 C 741.72 809.74 728.38 810.82 715.01 810.87 C 711.24 810.92 707.40 810.90 703.74 811.90 C 702.64 812.00 701.12 813.52 702.67 814.30 C 708.74 818.39 716.15 819.78 723.06 821.89 C 756.20 830.42 790.11 835.73 824.12 839.40 C 838.52 841.11 853.11 841.16 867.40 843.80 C 871.35 844.74 875.91 845.26 878.86 848.34 C 880.34 851.88 875.52 853.71 873.04 855.05 C 856.87 861.69 839.38 864.25 822.21 867.01 C 805.91 869.35 789.49 870.95 773.04 871.77 C 767.81 872.05 762.55 872.39 757.42 873.54 C 755.25 874.08 752.88 874.67 751.33 876.42 C 750.49 878.45 752.59 879.94 754.02 880.98 C 759.35 884.45 765.46 886.44 771.44 888.50 C 789.99 894.46 809.10 898.49 828.23 902.09 C 853.61 906.70 879.21 910.12 904.95 911.99 C 924.58 913.52 944.31 912.98 963.91 915.02 C 985.01 916.98 1006.02 920.21 1026.62 925.18 C 1037.02 927.74 1047.38 930.63 1057.28 934.77 C 1062.26 936.88 1067.32 939.29 1071.00 943.40 L 1071.00 946.90 C 1068.74 948.44 1066.27 949.67 1063.58 950.21 C 1054.64 952.15 1045.44 952.05 1036.35 952.31 C 968.24 953.66 900.07 954.40 831.98 951.82 C 811.92 951.67 791.85 953.02 771.97 955.72 C 761.83 957.21 751.65 958.88 741.89 962.10 C 738.05 963.28 734.67 965.80 730.61 966.29 C 719.46 967.88 708.19 968.35 696.96 968.99 C 668.32 970.37 639.66 970.98 610.99 971.48 C 544.99 972.43 478.97 972.36 412.98 970.71 C 382.61 969.83 352.20 968.90 321.94 966.03 C 313.91 965.15 305.78 964.39 297.99 962.15 C 295.79 961.34 292.79 960.65 292.22 958.00 C 293.50 955.30 296.46 954.16 298.99 952.99 C 305.60 950.23 312.55 948.40 319.47 946.61 C 356.89 937.45 394.97 931.38 432.75 923.94 C 445.79 921.22 459.00 919.00 471.67 914.81 C 473.19 913.92 476.40 913.63 475.75 911.24 C 473.43 909.63 470.61 909.01 467.90 908.43 C 460.66 906.99 453.31 906.21 445.97 905.46 C 422.31 903.16 398.58 901.80 374.91 899.63 C 360.30 897.99 345.32 897.37 331.27 892.77 C 327.31 892.06 327.76 887.01 324.46 885.49 C 316.01 880.88 306.41 879.02 297.14 876.75 C 255.46 867.75 213.04 862.94 170.96 856.25 C 168.50 855.88 166.08 855.23 163.88 854.05 C 167.22 852.01 171.19 851.74 174.96 851.17 C 215.89 846.16 257.23 844.49 297.92 837.56 C 306.07 835.98 314.43 834.59 321.94 830.91 C 323.66 829.86 326.40 828.56 325.92 826.13 C 324.42 823.42 321.13 822.57 318.44 821.51 C 307.80 818.17 296.68 816.73 285.66 815.21 C 248.28 810.55 210.64 808.40 173.05 806.27 C 151.01 804.98 128.92 804.41 106.91 802.71 C 97.75 801.93 88.55 801.17 79.56 799.21 C 77.11 798.53 74.28 798.07 72.63 795.94 C 73.27 793.46 76.14 792.96 78.18 792.12 C 87.94 789.16 98.11 787.93 108.19 786.69 C 104.13 781.48 99.74 776.53 95.70 771.31 C 48.46 711.51 15.03 640.62 0.11 565.83 C 6.33 569.18 12.18 573.17 18.37 576.59 C 69.16 605.72 125.82 624.57 183.96 631.61 C 264.16 641.50 347.06 629.14 420.66 595.66 C 489.90 564.39 550.74 514.88 595.61 453.59 C 638.21 395.63 666.35 327.12 676.55 255.91 C 689.24 169.25 675.66 78.91 637.57 0.00 Z" />
<path fill="#ffffff" opacity="1.00" d=" M 952.74 797.31 C 963.11 796.29 973.56 796.63 983.96 796.38 C 1003.65 796.37 1023.35 796.54 1043.03 797.18 C 1048.61 797.58 1054.48 797.10 1059.77 799.23 C 1060.19 801.34 1057.58 801.63 1056.21 802.40 C 1047.77 805.29 1038.94 807.02 1030.06 807.86 C 1028.07 808.19 1024.90 809.28 1025.33 811.83 C 1026.58 815.02 1030.85 814.96 1032.96 817.09 L 1032.78 817.80 C 1023.78 820.36 1014.31 820.58 1005.04 821.40 C 975.75 823.35 946.37 823.67 917.02 823.21 C 897.75 822.74 878.46 822.22 859.28 820.31 C 854.81 819.63 849.95 819.56 846.08 816.95 C 848.95 813.44 853.93 813.31 858.00 812.13 C 882.41 807.36 907.24 805.15 932.00 803.02 C 942.84 802.35 953.71 801.08 964.58 801.34 C 964.59 801.16 964.61 800.81 964.62 800.63 C 960.59 799.87 956.47 799.07 952.74 797.31 Z" />
<path fill="#ffffff" opacity="1.00" d=" M 781.29 997.18 C 816.63 986.92 853.29 981.65 890.00 979.93 C 895.64 979.71 901.30 979.20 906.94 979.74 C 945.67 982.64 984.41 985.66 1022.97 990.41 C 1032.88 991.78 1042.89 992.90 1052.56 995.57 C 1053.98 996.23 1056.94 996.52 1055.79 998.75 C 1047.95 1002.08 1039.20 1002.16 1030.88 1003.31 C 978.70 1008.10 926.27 1009.11 873.95 1011.57 C 859.83 1012.55 845.65 1014.13 831.99 1017.98 C 823.90 1020.38 815.60 1023.45 809.45 1029.45 C 805.36 1033.30 803.08 1039.27 804.58 1044.83 C 806.44 1052.27 812.09 1058.17 818.35 1062.29 C 817.56 1064.91 814.44 1064.86 812.28 1065.53 C 799.07 1067.92 785.61 1068.41 772.24 1069.18 C 718.53 1071.54 664.74 1071.49 610.99 1070.86 C 585.34 1070.42 559.68 1069.94 534.06 1068.48 C 526.33 1067.96 518.57 1067.52 510.95 1066.07 C 509.58 1065.89 508.41 1065.21 507.52 1064.21 C 515.80 1061.44 524.66 1061.30 533.26 1060.19 C 564.51 1057.19 595.85 1055.05 627.01 1051.10 C 635.79 1049.70 644.88 1049.22 653.29 1046.17 C 655.47 1045.65 654.44 1043.47 652.76 1043.26 C 644.89 1040.39 636.46 1039.65 628.24 1038.35 C 598.87 1034.46 569.36 1031.85 539.92 1028.51 C 518.48 1025.99 496.94 1023.75 475.77 1019.43 C 474.20 1018.66 470.29 1018.86 471.30 1016.30 C 477.26 1014.16 483.68 1013.97 489.92 1013.26 C 513.90 1011.32 537.97 1010.64 562.02 1009.94 C 617.34 1008.45 672.68 1008.03 728.01 1007.44 C 735.98 1007.10 744.13 1007.95 751.92 1005.81 C 761.81 1003.26 771.46 999.91 781.29 997.18 Z" />
<path fill="#ffffff" opacity="1.00" d=" M 475.13 1095.61 C 491.06 1094.34 507.04 1093.99 523.01 1093.74 C 578.05 1092.92 633.10 1095.24 688.00 1099.00 C 709.66 1100.73 731.43 1102.21 752.77 1106.50 C 754.67 1107.16 757.64 1107.02 758.22 1109.43 C 748.70 1111.31 738.90 1110.64 729.33 1112.00 L 695.69 1112.00 C 676.86 1110.58 657.91 1110.91 639.03 1110.13 C 608.31 1109.21 577.60 1107.99 546.91 1106.35 C 523.28 1105.01 499.62 1103.78 476.08 1101.29 C 471.34 1100.49 466.20 1100.63 461.98 1098.05 C 466.10 1096.16 470.70 1096.08 475.13 1095.61 Z" />
</g>
</svg>
