<?xml version="1.0" encoding="UTF-8" ?>
<!DOCTYPE svg PUBLIC "-//W3C//DTD SVG 1.1//EN" "http://www.w3.org/Graphics/SVG/1.1/DTD/svg11.dtd">
<svg width="512pt" height="512pt" viewBox="0 0 512 512" version="1.1" xmlns="http://www.w3.org/2000/svg">
<g id="#c23a3aff">
<path fill="#c23a3a" opacity="1.00" d=" M 306.73 0.00 L 311.76 0.00 C 316.54 1.35 320.49 5.87 320.06 11.01 C 320.38 27.13 322.97 43.25 328.67 58.38 C 339.36 87.55 358.85 112.17 377.01 136.98 C 396.46 163.01 415.20 190.00 427.79 220.12 C 440.99 250.64 447.24 283.88 447.99 317.04 C 448.85 354.30 438.16 391.68 418.07 423.06 C 396.10 457.62 362.85 484.93 324.55 499.49 C 305.69 506.81 285.65 510.79 265.49 512.00 L 245.91 512.00 C 225.50 510.56 205.17 506.59 186.15 498.93 C 139.85 481.03 101.24 444.32 80.91 399.04 C 70.86 377.05 65.23 353.10 64.06 328.97 C 63.42 302.09 65.34 274.98 72.27 248.93 C 79.11 223.54 90.90 198.55 110.68 180.68 C 114.78 177.04 119.15 173.56 124.15 171.24 C 130.11 168.75 137.48 172.88 138.58 179.21 C 141.91 197.33 147.98 215.22 158.40 230.54 C 166.37 242.09 177.98 251.82 192.00 254.71 C 191.85 224.92 193.68 195.07 198.76 165.70 C 203.07 140.28 211.86 115.70 224.18 93.07 C 242.03 60.24 266.17 30.66 295.56 7.49 C 299.25 4.95 302.48 1.63 306.73 0.00 Z" />
</g>
</svg>
