<?xml version="1.0" encoding="UTF-8" ?>
<!DOCTYPE svg PUBLIC "-//W3C//DTD SVG 1.1//EN" "http://www.w3.org/Graphics/SVG/1.1/DTD/svg11.dtd">
<svg width="512pt" height="512pt" viewBox="0 0 512 512" version="1.1" xmlns="http://www.w3.org/2000/svg">
<g id="#6a3ac2ff">
<path fill="#6a3ac2" opacity="1.00" d=" M 231.74 25.71 C 237.05 15.32 249.48 9.40 260.91 11.65 C 269.37 13.02 276.82 18.73 280.62 26.37 C 299.82 65.21 318.98 104.09 338.17 142.94 C 341.15 149.21 346.47 154.36 352.94 156.91 C 357.05 158.61 361.52 158.90 365.86 159.57 C 406.30 165.46 446.75 171.31 487.18 177.21 C 492.90 177.95 498.52 180.19 502.80 184.13 C 508.23 188.92 511.34 195.95 512.00 203.10 L 512.00 206.43 C 511.50 211.79 509.69 217.09 506.33 221.33 C 503.54 224.83 500.16 227.78 497.00 230.92 C 468.29 258.90 439.60 286.89 410.88 314.86 C 406.12 319.31 402.85 325.38 402.12 331.88 C 401.44 336.64 402.55 341.39 403.34 346.07 C 410.08 385.37 416.81 424.67 423.56 463.97 C 424.92 470.25 425.39 477.00 422.91 483.09 C 418.60 494.66 405.85 502.34 393.60 500.53 C 388.14 499.93 383.36 497.11 378.62 494.57 C 342.30 475.50 306.02 456.36 269.69 437.31 C 261.62 432.78 251.30 432.50 243.12 436.93 C 206.60 456.12 170.08 475.33 133.56 494.52 C 126.87 498.39 119.34 501.82 111.40 500.56 C 96.98 498.97 85.39 484.66 87.46 470.17 C 94.75 426.45 102.50 382.79 109.81 339.07 C 111.11 330.44 107.92 321.38 101.64 315.35 C 71.45 285.88 41.23 256.45 11.01 227.00 C 5.00 221.91 0.68 214.76 0.00 206.81 L 0.00 203.40 C 0.57 190.81 10.46 179.31 23.04 177.52 C 66.05 171.26 109.06 165.06 152.06 158.75 C 161.16 157.63 169.51 151.84 173.52 143.57 C 192.97 104.31 212.27 64.96 231.74 25.71 Z" />
</g>
</svg>
