<?xml version="1.0" encoding="UTF-8" ?>
<!DOCTYPE svg PUBLIC "-//W3C//DTD SVG 1.1//EN" "http://www.w3.org/Graphics/SVG/1.1/DTD/svg11.dtd">
<svg width="250pt" height="250pt" viewBox="0 0 250 250" version="1.1" xmlns="http://www.w3.org/2000/svg">
<g id="#000000ff">
</g>
<g id="#004531ff">
<path fill="#004531" opacity="1.00" d=" M 88.09 14.08 C 97.18 8.04 108.12 4.81 119.03 4.73 C 126.59 5.05 134.18 6.27 141.40 8.57 C 144.54 9.83 148.81 11.07 149.39 14.99 C 150.17 22.71 147.95 30.34 148.39 38.07 C 177.09 51.02 199.55 75.32 213.80 103.06 C 224.12 123.58 230.41 147.06 226.49 170.07 C 222.93 190.99 211.27 210.46 194.53 223.51 C 182.72 232.73 168.41 237.87 154.30 242.42 C 129.82 250.20 102.77 248.42 79.06 238.84 C 60.43 231.52 44.71 217.49 35.02 200.01 C 28.75 188.59 23.54 176.11 23.04 162.93 C 22.06 156.66 23.34 150.38 23.66 144.12 C 28.27 111.29 44.38 80.27 68.43 57.48 C 75.16 51.00 82.74 45.39 90.93 40.88 C 90.48 33.18 88.10 25.76 87.34 18.09 C 87.35 16.77 86.57 14.89 88.09 14.08 M 96.30 19.75 C 96.33 20.55 96.38 22.14 96.41 22.93 C 97.37 28.55 98.17 34.20 99.23 39.80 C 100.24 45.40 104.56 49.76 109.16 52.75 C 106.72 52.36 104.28 52.00 101.83 51.64 C 99.87 50.60 97.98 49.42 96.01 48.40 C 90.32 51.81 84.62 55.28 79.55 59.59 C 63.30 73.88 50.47 91.93 41.76 111.71 C 33.88 129.60 29.98 149.65 33.34 169.09 C 36.96 191.46 50.22 212.24 69.46 224.35 C 83.64 233.30 100.40 237.38 117.00 238.31 C 139.52 239.09 162.40 233.48 181.60 221.58 C 195.72 212.87 207.27 199.73 213.14 184.13 C 218.46 170.12 219.30 154.70 216.89 139.99 C 212.43 114.05 198.41 90.42 180.16 71.75 C 169.65 61.33 157.64 52.07 143.96 46.23 C 142.30 47.53 140.59 48.77 138.81 49.90 C 136.10 50.57 133.36 51.15 130.59 51.46 C 133.40 49.32 136.31 47.05 137.87 43.78 C 140.05 40.24 139.84 35.97 140.30 31.99 C 140.28 27.31 140.76 22.54 139.69 17.94 C 133.46 14.23 126.05 13.51 119.00 12.70 C 111.03 13.01 102.94 15.25 96.30 19.75 Z" />
</g>
<g id="#ecb749ff">
<path fill="#ecb749" opacity="1.00" d=" M 96.30 19.75 C 102.94 15.25 111.03 13.01 119.00 12.70 C 126.05 13.51 133.46 14.23 139.69 17.94 C 138.84 22.27 134.36 23.63 130.65 24.61 C 119.42 27.18 107.04 28.28 96.41 22.93 C 96.38 22.14 96.33 20.55 96.30 19.75 Z" />
</g>
<g id="#de8845ff">
<path fill="#de8845" opacity="1.00" d=" M 139.69 17.94 C 140.76 22.54 140.28 27.31 140.30 31.99 C 139.84 35.97 140.05 40.24 137.87 43.78 C 136.31 47.05 133.40 49.32 130.59 51.46 C 123.68 53.66 116.28 54.41 109.16 52.75 C 104.56 49.76 100.24 45.40 99.23 39.80 C 98.17 34.20 97.37 28.55 96.41 22.93 C 107.04 28.28 119.42 27.18 130.65 24.61 C 134.36 23.63 138.84 22.27 139.69 17.94 Z" />
</g>
<g id="#70ba95ff">
<path fill="#70ba95" opacity="1.00" d=" M 138.81 49.90 C 140.59 48.77 142.30 47.53 143.96 46.23 C 157.64 52.07 169.65 61.33 180.16 71.75 C 198.41 90.42 212.43 114.05 216.89 139.99 C 219.30 154.70 218.46 170.12 213.14 184.13 C 207.27 199.73 195.72 212.87 181.60 221.58 C 162.40 233.48 139.52 239.09 117.00 238.31 C 100.40 237.38 83.64 233.30 69.46 224.35 C 50.22 212.24 36.96 191.46 33.34 169.09 C 29.98 149.65 33.88 129.60 41.76 111.71 C 50.47 91.93 63.30 73.88 79.55 59.59 C 84.62 55.28 90.32 51.81 96.01 48.40 C 97.98 49.42 99.87 50.60 101.83 51.64 C 102.70 56.56 103.27 61.53 104.46 66.38 C 104.88 68.44 106.52 69.86 108.01 71.19 C 106.15 70.66 104.42 69.79 102.76 68.83 C 100.69 69.56 98.63 70.32 96.57 71.09 C 96.79 71.52 97.24 72.37 97.46 72.80 C 95.28 73.68 93.09 74.58 90.79 75.06 C 81.77 75.11 74.17 81.10 68.87 87.91 C 62.71 95.67 58.58 105.52 59.30 115.57 C 58.30 116.58 57.30 117.60 56.36 118.67 C 50.51 129.03 47.56 140.99 47.70 152.88 C 46.19 154.11 44.63 155.29 43.04 156.42 C 41.67 151.21 40.61 145.93 39.31 140.70 C 38.81 150.31 40.03 159.99 41.88 169.41 C 44.21 167.52 46.43 165.50 48.55 163.39 C 50.94 181.00 60.04 197.84 73.95 209.01 C 101.18 229.29 140.48 229.04 169.01 211.52 C 176.41 212.76 183.69 208.75 188.63 203.53 C 191.77 200.44 192.42 195.54 190.32 191.69 C 194.46 185.49 197.75 178.68 199.50 171.42 C 202.56 159.62 201.87 147.23 199.94 135.31 C 200.39 134.55 200.83 133.78 201.27 133.02 C 205.87 136.92 209.60 141.67 213.93 145.84 C 209.91 138.83 206.25 131.54 200.98 125.36 C 200.14 126.55 199.31 127.76 198.48 128.96 C 197.10 123.88 195.40 118.89 193.41 114.01 C 192.64 110.20 188.59 109.44 185.46 108.39 C 186.36 103.61 182.03 100.47 179.81 96.83 C 177.23 92.54 172.92 89.79 169.74 86.01 C 166.39 83.33 163.30 79.49 158.60 79.58 C 158.82 79.18 159.26 78.38 159.47 77.98 C 154.84 76.81 150.34 75.16 146.19 72.78 C 140.60 70.83 134.45 70.01 128.73 71.99 C 131.61 70.51 134.92 69.57 137.33 67.36 C 138.85 61.68 138.02 55.70 138.81 49.90 Z" />
</g>
<g id="#8cb973ff">
<path fill="#8cb973" opacity="1.00" d=" M 130.59 51.46 C 133.36 51.15 136.10 50.57 138.81 49.90 C 138.02 55.70 138.85 61.68 137.33 67.36 C 134.92 69.57 131.61 70.51 128.73 71.99 C 121.90 74.09 114.70 73.45 108.01 71.19 C 106.52 69.86 104.88 68.44 104.46 66.38 C 103.27 61.53 102.70 56.56 101.83 51.64 C 104.28 52.00 106.72 52.36 109.16 52.75 C 116.28 54.41 123.68 53.66 130.59 51.46 Z" />
</g>
<g id="#7abaa3ff">
<path fill="#7abaa3" opacity="1.00" d=" M 96.57 71.09 C 98.63 70.32 100.69 69.56 102.76 68.83 C 104.42 69.79 106.15 70.66 108.01 71.19 C 114.70 73.45 121.90 74.09 128.73 71.99 C 134.45 70.01 140.60 70.83 146.19 72.78 C 150.34 75.16 154.84 76.81 159.47 77.98 C 159.26 78.38 158.82 79.18 158.60 79.58 C 163.30 79.49 166.39 83.33 169.74 86.01 C 172.92 89.79 177.23 92.54 179.81 96.83 C 182.03 100.47 186.36 103.61 185.46 108.39 C 174.94 105.37 163.93 104.52 153.03 104.30 C 130.73 102.08 108.39 104.83 86.26 107.49 C 91.87 100.70 95.74 92.01 94.83 83.04 C 95.04 79.80 93.27 76.97 90.79 75.06 C 93.09 74.58 95.28 73.68 97.46 72.80 C 97.24 72.37 96.79 71.52 96.57 71.09 Z" />
</g>
<g id="#ffffffff">
<path fill="#ffffff" opacity="1.00" d=" M 68.87 87.91 C 74.17 81.10 81.77 75.11 90.79 75.06 C 93.27 76.97 95.04 79.80 94.83 83.04 C 95.74 92.01 91.87 100.70 86.26 107.49 C 81.08 113.01 75.90 120.00 67.97 121.32 C 63.93 122.23 60.47 119.22 59.30 115.57 C 58.58 105.52 62.71 95.67 68.87 87.91 Z" />
<path fill="#ffffff" opacity="1.00" d=" M 168.25 205.30 C 170.90 198.42 176.54 192.56 183.91 190.98 C 186.08 190.72 188.22 191.20 190.32 191.69 C 192.42 195.54 191.77 200.44 188.63 203.53 C 183.69 208.75 176.41 212.76 169.01 211.52 C 168.35 209.51 167.88 207.42 168.25 205.30 Z" />
</g>
<g id="#ffd3daff">
<path fill="#ffd3da" opacity="1.00" d=" M 86.26 107.49 C 108.39 104.83 130.73 102.08 153.03 104.30 C 163.93 104.52 174.94 105.37 185.46 108.39 C 188.59 109.44 192.64 110.20 193.41 114.01 C 186.89 119.29 178.22 120.43 170.34 122.50 C 143.30 127.79 115.42 128.82 88.07 125.40 C 77.41 124.09 65.75 124.59 56.36 118.67 C 57.30 117.60 58.30 116.58 59.30 115.57 C 60.47 119.22 63.93 122.23 67.97 121.32 C 75.90 120.00 81.08 113.01 86.26 107.49 Z" />
</g>
<g id="#ffafbcff">
<path fill="#ffafbc" opacity="1.00" d=" M 170.34 122.50 C 178.22 120.43 186.89 119.29 193.41 114.01 C 195.40 118.89 197.10 123.88 198.48 128.96 C 194.39 135.09 189.76 140.82 185.39 146.74 C 178.76 142.47 170.15 140.74 162.48 142.73 C 159.49 141.21 156.53 139.64 153.62 137.97 C 150.43 136.10 147.26 134.20 143.97 132.50 C 131.01 141.46 119.43 152.21 107.45 162.39 C 105.50 163.54 103.60 161.95 101.94 161.03 C 94.72 156.47 88.15 150.97 81.59 145.54 C 78.01 142.68 74.77 139.38 70.90 136.92 C 69.22 135.78 67.46 137.23 66.11 138.17 C 63.25 140.43 60.50 142.83 57.59 145.02 C 54.32 147.67 51.00 150.26 47.70 152.88 C 47.56 140.99 50.51 129.03 56.36 118.67 C 65.75 124.59 77.41 124.09 88.07 125.40 C 115.42 128.82 143.30 127.79 170.34 122.50 Z" />
<path fill="#ffafbc" opacity="1.00" d=" M 190.29 152.55 C 193.50 146.80 196.54 140.95 199.94 135.31 C 201.87 147.23 202.56 159.62 199.50 171.42 C 197.75 178.68 194.46 185.49 190.32 191.69 C 188.22 191.20 186.08 190.72 183.91 190.98 C 185.99 190.15 187.59 188.49 188.43 186.42 C 192.32 177.92 194.40 168.34 193.01 159.00 C 192.77 156.62 191.51 154.54 190.29 152.55 Z" />
<path fill="#ffafbc" opacity="1.00" d=" M 140.06 143.06 C 143.30 140.62 147.76 141.04 151.28 142.63 C 151.94 142.93 152.61 143.24 153.27 143.56 C 146.82 145.82 140.34 148.11 134.33 151.40 C 131.80 152.82 129.16 154.02 126.44 155.05 C 130.35 150.40 135.12 146.55 140.06 143.06 Z" />
<path fill="#ffafbc" opacity="1.00" d=" M 73.36 148.04 C 76.03 149.64 78.60 151.40 81.09 153.26 C 89.72 159.65 97.19 167.40 104.90 174.83 C 100.16 180.84 95.60 187.42 93.98 195.03 C 92.60 200.97 95.83 207.01 100.61 210.42 C 108.76 216.16 119.11 218.44 128.96 217.22 C 142.63 215.68 156.09 211.81 168.25 205.30 C 167.88 207.42 168.35 209.51 169.01 211.52 C 140.48 229.04 101.18 229.29 73.95 209.01 C 60.04 197.84 50.94 181.00 48.55 163.39 C 51.59 160.45 54.67 157.55 57.74 154.65 C 58.55 157.26 59.53 159.84 61.12 162.08 C 67.39 159.97 70.85 153.72 73.36 148.04 Z" />
</g>
<g id="#abf8e5ff">
<path fill="#abf8e5" opacity="1.00" d=" M 198.48 128.96 C 199.31 127.76 200.14 126.55 200.98 125.36 C 206.25 131.54 209.91 138.83 213.93 145.84 C 209.60 141.67 205.87 136.92 201.27 133.02 C 200.83 133.78 200.39 134.55 199.94 135.31 C 196.54 140.95 193.50 146.80 190.29 152.55 C 188.64 155.65 186.88 158.68 185.06 161.69 C 181.09 160.22 177.72 157.60 174.04 155.59 C 175.45 153.59 176.71 151.48 177.88 149.33 C 180.85 150.55 183.95 149.73 185.39 146.74 C 189.76 140.82 194.39 135.09 198.48 128.96 Z" />
</g>
<g id="#94f2c5ff">
<path fill="#94f2c5" opacity="1.00" d=" M 107.45 162.39 C 119.43 152.21 131.01 141.46 143.97 132.50 C 147.26 134.20 150.43 136.10 153.62 137.97 C 153.06 139.62 152.34 141.23 151.28 142.63 C 147.76 141.04 143.30 140.62 140.06 143.06 C 135.12 146.55 130.35 150.40 126.44 155.05 C 122.39 159.09 118.99 163.70 115.45 168.18 C 112.40 166.86 108.46 166.06 107.45 162.39 Z" />
</g>
<g id="#a7f6e0ff">
<path fill="#a7f6e0" opacity="1.00" d=" M 66.11 138.17 C 67.46 137.23 69.22 135.78 70.90 136.92 C 74.77 139.38 78.01 142.68 81.59 145.54 C 80.84 148.05 80.79 150.68 81.09 153.26 C 78.60 151.40 76.03 149.64 73.36 148.04 C 71.46 147.00 69.37 145.96 67.14 146.23 C 64.59 147.92 62.58 150.27 60.30 152.28 C 59.14 149.96 58.24 147.53 57.59 145.02 C 60.50 142.83 63.25 140.43 66.11 138.17 Z" />
</g>
<g id="#a0f5d6ff">
<path fill="#a0f5d6" opacity="1.00" d=" M 153.62 137.97 C 156.53 139.64 159.49 141.21 162.48 142.73 C 167.40 145.40 172.60 147.49 177.88 149.33 C 176.71 151.48 175.45 153.59 174.04 155.59 C 167.01 151.75 160.40 147.20 153.27 143.56 C 152.61 143.24 151.94 142.93 151.28 142.63 C 152.34 141.23 153.06 139.62 153.62 137.97 Z" />
</g>
<g id="#b2f8eeff">
<path fill="#b2f8ee" opacity="1.00" d=" M 39.31 140.70 C 40.61 145.93 41.67 151.21 43.04 156.42 C 44.63 155.29 46.19 154.11 47.70 152.88 C 51.00 150.26 54.32 147.67 57.59 145.02 C 58.24 147.53 59.14 149.96 60.30 152.28 C 59.45 153.07 58.59 153.86 57.74 154.65 C 54.67 157.55 51.59 160.45 48.55 163.39 C 46.43 165.50 44.21 167.52 41.88 169.41 C 40.03 159.99 38.81 150.31 39.31 140.70 Z" />
</g>
<g id="#ff93a1ff">
<path fill="#ff93a1" opacity="1.00" d=" M 162.48 142.73 C 170.15 140.74 178.76 142.47 185.39 146.74 C 183.95 149.73 180.85 150.55 177.88 149.33 C 172.60 147.49 167.40 145.40 162.48 142.73 Z" />
<path fill="#ff93a1" opacity="1.00" d=" M 134.33 151.40 C 140.34 148.11 146.82 145.82 153.27 143.56 C 160.40 147.20 167.01 151.75 174.04 155.59 C 177.72 157.60 181.09 160.22 185.06 161.69 C 186.88 158.68 188.64 155.65 190.29 152.55 C 191.51 154.54 192.77 156.62 193.01 159.00 C 194.40 168.34 192.32 177.92 188.43 186.42 C 187.59 188.49 185.99 190.15 183.91 190.98 C 176.54 192.56 170.90 198.42 168.25 205.30 C 156.09 211.81 142.63 215.68 128.96 217.22 C 119.11 218.44 108.76 216.16 100.61 210.42 C 95.83 207.01 92.60 200.97 93.98 195.03 C 95.60 187.42 100.16 180.84 104.90 174.83 C 106.04 175.69 107.29 176.39 108.56 177.05 C 110.88 174.11 113.17 171.15 115.45 168.18 C 118.99 163.70 122.39 159.09 126.44 155.05 C 129.16 154.02 131.80 152.82 134.33 151.40 Z" />
<path fill="#ff93a1" opacity="1.00" d=" M 60.30 152.28 C 62.58 150.27 64.59 147.92 67.14 146.23 C 69.37 145.96 71.46 147.00 73.36 148.04 C 70.85 153.72 67.39 159.97 61.12 162.08 C 59.53 159.84 58.55 157.26 57.74 154.65 C 58.59 153.86 59.45 153.07 60.30 152.28 Z" />
</g>
<g id="#9cf3d0ff">
<path fill="#9cf3d0" opacity="1.00" d=" M 81.09 153.26 C 80.79 150.68 80.84 148.05 81.59 145.54 C 88.15 150.97 94.72 156.47 101.94 161.03 C 103.60 161.95 105.50 163.54 107.45 162.39 C 108.46 166.06 112.40 166.86 115.45 168.18 C 113.17 171.15 110.88 174.11 108.56 177.05 C 107.29 176.39 106.04 175.69 104.90 174.83 C 97.19 167.40 89.72 159.65 81.09 153.26 Z" />
</g>
</svg>
