<?xml version="1.0" encoding="UTF-8" ?>
<!DOCTYPE svg PUBLIC "-//W3C//DTD SVG 1.1//EN" "http://www.w3.org/Graphics/SVG/1.1/DTD/svg11.dtd">
<svg width="250pt" height="250pt" viewBox="0 0 250 250" version="1.1" xmlns="http://www.w3.org/2000/svg">
<g id="#004531ff">
<path fill="#004531" opacity="1.00" d=" M 89.06 13.39 C 99.74 6.91 112.56 3.54 125.04 5.17 C 131.29 6.01 137.63 6.98 143.50 9.40 C 145.91 10.40 148.72 11.65 149.30 14.50 C 150.29 22.41 147.90 30.24 148.36 38.16 C 177.38 51.05 199.91 75.80 214.16 103.79 C 224.36 124.41 230.54 148.05 226.31 171.06 C 221.49 197.60 203.57 221.68 178.96 233.03 C 161.96 240.70 143.83 246.93 124.99 247.30 C 103.69 247.60 82.09 242.39 63.93 231.08 C 45.12 218.98 31.99 199.35 25.64 178.12 C 23.58 171.61 23.11 164.76 22.65 157.99 C 23.71 119.66 41.56 82.51 69.50 56.48 C 75.98 50.47 83.11 45.08 90.95 40.95 C 90.39 32.51 87.69 24.36 87.19 15.90 C 86.81 14.61 88.24 13.99 89.06 13.39 M 96.29 19.71 C 96.32 20.52 96.38 22.15 96.41 22.97 C 97.39 28.57 98.16 34.21 99.24 39.79 C 100.26 45.39 104.55 49.77 109.16 52.76 C 106.71 52.34 104.25 51.98 101.80 51.61 C 99.86 50.55 97.95 49.45 96.01 48.41 C 79.42 57.39 66.12 71.36 55.60 86.84 C 45.25 101.92 37.39 118.88 33.82 136.88 C 30.35 154.95 32.20 174.20 40.14 190.89 C 48.20 208.09 62.47 222.41 79.98 229.92 C 103.19 240.01 129.92 240.77 154.09 233.72 C 173.20 228.18 191.56 217.79 203.55 201.58 C 215.38 185.93 219.84 165.52 217.67 146.20 C 215.91 127.19 208.16 109.17 197.71 93.34 C 184.34 73.39 166.10 56.09 144.02 46.22 C 142.28 47.51 140.53 48.76 138.74 49.98 C 136.03 50.58 133.29 51.00 130.57 51.50 C 134.87 48.51 138.73 44.29 139.60 38.95 C 140.54 32.01 140.72 24.92 139.83 17.97 C 133.52 14.34 126.12 13.45 119.01 12.72 C 111.01 12.94 103.00 15.33 96.29 19.71 Z" />
</g>
<g id="#ecb749ff">
<path fill="#ecb749" opacity="1.00" d=" M 96.29 19.71 C 103.00 15.33 111.01 12.94 119.01 12.72 C 126.12 13.45 133.52 14.34 139.83 17.97 C 138.63 22.13 134.40 23.69 130.61 24.62 C 119.40 27.27 107.06 28.14 96.41 22.97 C 96.38 22.15 96.32 20.52 96.29 19.71 Z" />
</g>
<g id="#de8845ff">
<path fill="#de8845" opacity="1.00" d=" M 139.83 17.97 C 140.72 24.92 140.54 32.01 139.60 38.95 C 138.73 44.29 134.87 48.51 130.57 51.50 C 123.64 53.61 116.27 54.42 109.16 52.76 C 104.55 49.77 100.26 45.39 99.24 39.79 C 98.16 34.21 97.39 28.57 96.41 22.97 C 107.06 28.14 119.40 27.27 130.61 24.62 C 134.40 23.69 138.63 22.13 139.83 17.97 Z" />
</g>
<g id="#70ba95ff">
<path fill="#70ba95" opacity="1.00" d=" M 138.74 49.98 C 140.53 48.76 142.28 47.51 144.02 46.22 C 166.10 56.09 184.34 73.39 197.71 93.34 C 208.16 109.17 215.91 127.19 217.67 146.20 C 219.84 165.52 215.38 185.93 203.55 201.58 C 191.56 217.79 173.20 228.18 154.09 233.72 C 129.92 240.77 103.19 240.01 79.98 229.92 C 62.47 222.41 48.20 208.09 40.14 190.89 C 32.20 174.20 30.35 154.95 33.82 136.88 C 37.39 118.88 45.25 101.92 55.60 86.84 C 66.12 71.36 79.42 57.39 96.01 48.41 C 97.95 49.45 99.86 50.55 101.80 51.61 C 102.65 56.30 103.17 61.05 104.29 65.69 C 104.73 67.95 106.30 69.70 107.95 71.20 C 106.11 70.55 104.34 69.73 102.59 68.85 C 100.61 69.58 98.65 70.33 96.68 71.09 C 96.91 71.72 97.14 72.35 97.38 72.98 C 95.23 73.73 93.08 74.47 90.86 74.95 C 82.11 75.26 74.59 80.66 69.33 87.32 C 62.89 95.19 58.63 105.26 59.26 115.55 C 58.26 116.61 57.26 117.67 56.32 118.77 C 50.43 129.09 47.63 141.05 47.67 152.90 C 46.14 154.10 44.60 155.29 43.06 156.48 C 41.69 151.23 40.60 145.92 39.28 140.67 C 38.83 150.33 40.05 160.01 41.87 169.47 C 44.15 167.52 46.38 165.51 48.52 163.42 C 51.14 181.94 60.99 199.72 76.26 210.73 C 103.47 229.21 141.12 228.54 168.89 211.61 C 176.99 212.64 185.15 208.27 189.90 201.87 C 192.28 198.86 191.61 194.89 190.44 191.55 C 194.17 185.83 197.30 179.67 199.07 173.04 C 202.60 160.80 201.96 147.82 199.96 135.37 C 200.46 134.57 200.97 133.77 201.48 132.98 C 205.77 137.13 209.70 141.63 213.91 145.84 C 209.94 138.85 206.28 131.59 201.02 125.43 C 200.17 126.60 199.32 127.78 198.49 128.96 C 197.08 123.92 195.43 118.94 193.47 114.08 C 192.59 110.36 188.73 109.39 185.57 108.41 C 185.40 106.96 185.65 105.39 184.98 104.05 C 179.60 95.38 172.39 87.98 164.45 81.62 C 162.85 80.19 160.66 79.97 158.64 79.57 C 158.87 79.05 159.11 78.53 159.34 78.01 C 155.77 76.92 152.15 75.90 148.86 74.09 C 142.73 70.80 135.30 69.88 128.63 72.00 C 131.60 70.63 134.80 69.51 137.31 67.37 C 138.80 61.71 138.13 55.76 138.74 49.98 Z" />
</g>
<g id="#8cb973ff">
<path fill="#8cb973" opacity="1.00" d=" M 130.57 51.50 C 133.29 51.00 136.03 50.58 138.74 49.98 C 138.13 55.76 138.80 61.71 137.31 67.37 C 134.80 69.51 131.60 70.63 128.63 72.00 C 121.84 74.12 114.63 73.37 107.95 71.20 C 106.30 69.70 104.73 67.95 104.29 65.69 C 103.17 61.05 102.65 56.30 101.80 51.61 C 104.25 51.98 106.71 52.34 109.16 52.76 C 116.27 54.42 123.64 53.61 130.57 51.50 Z" />
</g>
<g id="#7abaa3ff">
<path fill="#7abaa3" opacity="1.00" d=" M 96.68 71.09 C 98.65 70.33 100.61 69.58 102.59 68.85 C 104.34 69.73 106.11 70.55 107.95 71.20 C 114.63 73.37 121.84 74.12 128.63 72.00 C 135.30 69.88 142.73 70.80 148.86 74.09 C 152.15 75.90 155.77 76.92 159.34 78.01 C 159.11 78.53 158.87 79.05 158.64 79.57 C 160.66 79.97 162.85 80.19 164.45 81.62 C 172.39 87.98 179.60 95.38 184.98 104.05 C 185.65 105.39 185.40 106.96 185.57 108.41 C 171.76 104.29 157.25 104.67 143.03 103.62 C 124.01 102.86 105.10 105.27 86.26 107.47 C 92.02 100.43 96.12 91.26 94.88 82.01 C 94.67 79.14 92.80 76.89 90.86 74.95 C 93.08 74.47 95.23 73.73 97.38 72.98 C 97.14 72.35 96.91 71.72 96.68 71.09 Z" />
</g>
<g id="#ffffffff">
<path fill="#ffffff" opacity="1.00" d=" M 69.33 87.32 C 74.59 80.66 82.11 75.26 90.86 74.95 C 92.80 76.89 94.67 79.14 94.88 82.01 C 96.12 91.26 92.02 100.43 86.26 107.47 C 81.14 113.08 75.89 119.97 67.95 121.35 C 63.87 122.25 60.53 119.16 59.26 115.55 C 58.63 105.26 62.89 95.19 69.33 87.32 Z" />
<path fill="#ffffff" opacity="1.00" d=" M 168.20 205.30 C 170.93 198.40 176.57 192.60 183.96 190.93 C 186.12 191.06 188.28 191.25 190.44 191.55 C 191.61 194.89 192.28 198.86 189.90 201.87 C 185.15 208.27 176.99 212.64 168.89 211.61 C 168.47 209.53 168.12 207.42 168.20 205.30 Z" />
</g>
<g id="#ffd3daff">
<path fill="#ffd3da" opacity="1.00" d=" M 86.26 107.47 C 105.10 105.27 124.01 102.86 143.03 103.62 C 157.25 104.67 171.76 104.29 185.57 108.41 C 188.73 109.39 192.59 110.36 193.47 114.08 C 190.99 115.86 188.35 117.45 185.44 118.39 C 170.70 123.45 155.12 125.30 139.66 126.60 C 122.47 128.10 105.16 127.42 88.03 125.43 C 77.36 124.16 65.84 124.43 56.32 118.77 C 57.26 117.67 58.26 116.61 59.26 115.55 C 60.53 119.16 63.87 122.25 67.95 121.35 C 75.89 119.97 81.14 113.08 86.26 107.47 Z" />
</g>
<g id="#ffafbcff">
<path fill="#ffafbc" opacity="1.00" d=" M 185.44 118.39 C 188.35 117.45 190.99 115.86 193.47 114.08 C 195.43 118.94 197.08 123.92 198.49 128.96 C 194.39 135.04 189.82 140.78 185.46 146.67 C 178.70 142.50 170.19 140.77 162.43 142.70 C 159.51 141.21 156.61 139.69 153.78 138.04 C 150.53 136.14 147.27 134.27 143.96 132.47 C 131.01 141.52 119.35 152.24 107.36 162.48 C 105.16 163.35 103.18 161.71 101.37 160.70 C 94.38 156.15 87.94 150.81 81.53 145.50 C 77.71 142.50 74.38 138.77 70.02 136.53 C 64.98 137.58 61.71 142.41 57.48 145.13 C 54.20 147.72 50.95 150.33 47.67 152.90 C 47.63 141.05 50.43 129.09 56.32 118.77 C 65.84 124.43 77.36 124.16 88.03 125.43 C 105.16 127.42 122.47 128.10 139.66 126.60 C 155.12 125.30 170.70 123.45 185.44 118.39 Z" />
<path fill="#ffafbc" opacity="1.00" d=" M 190.35 152.48 C 193.53 146.76 196.49 140.92 199.96 135.37 C 201.96 147.82 202.60 160.80 199.07 173.04 C 197.30 179.67 194.17 185.83 190.44 191.55 C 188.28 191.25 186.12 191.06 183.96 190.93 C 185.96 190.02 187.61 188.47 188.44 186.42 C 192.34 177.89 194.45 168.30 193.01 158.94 C 192.66 156.60 191.42 154.54 190.35 152.48 Z" />
<path fill="#ffafbc" opacity="1.00" d=" M 140.07 143.06 C 143.36 140.59 147.82 141.11 151.39 142.68 C 152.03 142.96 152.67 143.26 153.30 143.57 C 143.93 146.45 135.29 151.05 126.40 155.07 C 130.39 150.48 135.07 146.50 140.07 143.06 Z" />
<path fill="#ffafbc" opacity="1.00" d=" M 73.44 148.06 C 76.07 149.64 78.58 151.41 81.04 153.24 C 89.75 159.60 97.16 167.47 104.98 174.84 C 100.00 181.03 95.16 187.90 93.87 195.91 C 92.88 201.58 96.01 207.20 100.58 210.40 C 108.72 216.13 119.08 218.45 128.92 217.22 C 142.58 215.68 156.08 211.86 168.20 205.30 C 168.12 207.42 168.47 209.53 168.89 211.61 C 141.12 228.54 103.47 229.21 76.26 210.73 C 60.99 199.72 51.14 181.94 48.52 163.42 C 51.57 160.47 54.66 157.55 57.76 154.64 C 58.96 156.97 58.88 161.18 62.00 161.70 C 67.77 159.38 70.85 153.36 73.44 148.06 Z" />
</g>
<g id="#abf8e5ff">
<path fill="#abf8e5" opacity="1.00" d=" M 198.49 128.96 C 199.32 127.78 200.17 126.60 201.02 125.43 C 206.28 131.59 209.94 138.85 213.91 145.84 C 209.70 141.63 205.77 137.13 201.48 132.98 C 200.97 133.77 200.46 134.57 199.96 135.37 C 196.49 140.92 193.53 146.76 190.35 152.48 C 188.63 155.62 186.84 158.73 184.99 161.80 C 181.24 159.97 177.68 157.78 174.12 155.63 C 175.41 153.55 176.69 151.46 177.96 149.37 C 180.97 150.54 183.96 149.61 185.46 146.67 C 189.82 140.78 194.39 135.04 198.49 128.96 Z" />
</g>
<g id="#94f2c5ff">
<path fill="#94f2c5" opacity="1.00" d=" M 107.36 162.48 C 119.35 152.24 131.01 141.52 143.96 132.47 C 147.27 134.27 150.53 136.14 153.78 138.04 C 152.93 139.56 152.09 141.08 151.39 142.68 C 147.82 141.11 143.36 140.59 140.07 143.06 C 135.07 146.50 130.39 150.48 126.40 155.07 C 122.40 159.14 118.95 163.69 115.46 168.18 C 112.35 166.95 108.68 165.94 107.36 162.48 Z" />
</g>
<g id="#a7f6e0ff">
<path fill="#a7f6e0" opacity="1.00" d=" M 57.48 145.13 C 61.71 142.41 64.98 137.58 70.02 136.53 C 74.38 138.77 77.71 142.50 81.53 145.50 C 81.04 148.05 80.80 150.65 81.04 153.24 C 78.58 151.41 76.07 149.64 73.44 148.06 C 71.49 147.09 69.38 145.90 67.11 146.30 C 64.52 147.95 62.49 150.30 60.22 152.34 C 59.25 149.95 58.34 147.55 57.48 145.13 Z" />
</g>
<g id="#a0f5d6ff">
<path fill="#a0f5d6" opacity="1.00" d=" M 153.78 138.04 C 156.61 139.69 159.51 141.21 162.43 142.70 C 167.40 145.37 172.63 147.54 177.96 149.37 C 176.69 151.46 175.41 153.55 174.12 155.63 C 167.08 151.77 160.43 147.23 153.30 143.57 C 152.67 143.26 152.03 142.96 151.39 142.68 C 152.09 141.08 152.93 139.56 153.78 138.04 Z" />
</g>
<g id="#b2f8eeff">
<path fill="#b2f8ee" opacity="1.00" d=" M 39.28 140.67 C 40.60 145.92 41.69 151.23 43.06 156.48 C 44.60 155.29 46.14 154.10 47.67 152.90 C 50.95 150.33 54.20 147.72 57.48 145.13 C 58.34 147.55 59.25 149.95 60.22 152.34 C 59.40 153.10 58.58 153.87 57.76 154.64 C 54.66 157.55 51.57 160.47 48.52 163.42 C 46.38 165.51 44.15 167.52 41.87 169.47 C 40.05 160.01 38.83 150.33 39.28 140.67 Z" />
</g>
<g id="#ff93a1ff">
<path fill="#ff93a1" opacity="1.00" d=" M 162.43 142.70 C 170.19 140.77 178.70 142.50 185.46 146.67 C 183.96 149.61 180.97 150.54 177.96 149.37 C 172.63 147.54 167.40 145.37 162.43 142.70 Z" />
<path fill="#ff93a1" opacity="1.00" d=" M 126.40 155.07 C 135.29 151.05 143.93 146.45 153.30 143.57 C 160.43 147.23 167.08 151.77 174.12 155.63 C 177.68 157.78 181.24 159.97 184.99 161.80 C 186.84 158.73 188.63 155.62 190.35 152.48 C 191.42 154.54 192.66 156.60 193.01 158.94 C 194.45 168.30 192.34 177.89 188.44 186.42 C 187.61 188.47 185.96 190.02 183.96 190.93 C 176.57 192.60 170.93 198.40 168.20 205.30 C 156.08 211.86 142.58 215.68 128.92 217.22 C 119.08 218.45 108.72 216.13 100.58 210.40 C 96.01 207.20 92.88 201.58 93.87 195.91 C 95.16 187.90 100.00 181.03 104.98 174.84 C 106.14 175.63 107.34 176.36 108.52 177.12 C 110.85 174.15 113.14 171.16 115.46 168.18 C 118.95 163.69 122.40 159.14 126.40 155.07 Z" />
<path fill="#ff93a1" opacity="1.00" d=" M 60.22 152.34 C 62.49 150.30 64.52 147.95 67.11 146.30 C 69.38 145.90 71.49 147.09 73.44 148.06 C 70.85 153.36 67.77 159.38 62.00 161.70 C 58.88 161.18 58.96 156.97 57.76 154.64 C 58.58 153.87 59.40 153.10 60.22 152.34 Z" />
</g>
<g id="#9cf3d0ff">
<path fill="#9cf3d0" opacity="1.00" d=" M 81.04 153.24 C 80.80 150.65 81.04 148.05 81.53 145.50 C 87.94 150.81 94.38 156.15 101.37 160.70 C 103.18 161.71 105.16 163.35 107.36 162.48 C 108.68 165.94 112.35 166.95 115.46 168.18 C 113.14 171.16 110.85 174.15 108.52 177.12 C 107.34 176.36 106.14 175.63 104.98 174.84 C 97.16 167.47 89.75 159.60 81.04 153.24 Z" />
</g>
</svg>
